<?xml version="1.0" encoding="utf-8" standalone="no"?>
<!DOCTYPE svg PUBLIC "-//W3C//DTD SVG 1.1//EN"
  "http://www.w3.org/Graphics/SVG/1.1/DTD/svg11.dtd">
<svg xmlns:xlink="http://www.w3.org/1999/xlink" width="676.3pt" height="594.034375pt" viewBox="0 0 676.3 594.034375" xmlns="http://www.w3.org/2000/svg" version="1.1">
 <metadata>
  <rdf:RDF xmlns:dc="http://purl.org/dc/elements/1.1/" xmlns:cc="http://creativecommons.org/ns#" xmlns:rdf="http://www.w3.org/1999/02/22-rdf-syntax-ns#">
   <cc:Work>
    <dc:type rdf:resource="http://purl.org/dc/dcmitype/StillImage"/>
    <dc:date>2024-03-06T17:16:20.100810</dc:date>
    <dc:format>image/svg+xml</dc:format>
    <dc:creator>
     <cc:Agent>
      <dc:title>Matplotlib v3.5.3, https://matplotlib.org/</dc:title>
     </cc:Agent>
    </dc:creator>
   </cc:Work>
  </rdf:RDF>
 </metadata>
 <defs>
  <style type="text/css">*{stroke-linejoin: round; stroke-linecap: butt}</style>
 </defs>
 <g id="figure_1">
  <g id="patch_1">
   <path d="M 0 594.034375 
L 676.3 594.034375 
L 676.3 0 
L 0 0 
L 0 594.034375 
z
" style="fill: none"/>
  </g>
  <g id="axes_1">
   <g id="patch_2">
    <path d="M 84.7 550.8 
L 642.7 550.8 
L 642.7 7.2 
L 84.7 7.2 
z
" style="fill: #ffffff"/>
   </g>
   <g id="matplotlib.axis_1">
    <g id="xtick_1">
     <g id="line2d_1">
      <defs>
       <path id="m8b68c0cc88" d="M 0 0 
L 0 3.5 
" style="stroke: #000000; stroke-width: 0.8"/>
      </defs>
      <g>
       <use xlink:href="#m8b68c0cc88" x="84.7" y="550.8" style="stroke: #000000; stroke-width: 0.8"/>
      </g>
     </g>
     <g id="text_1">
      <!-- $\mathdefault{10^{-2}}$ -->
      <g transform="translate(49.45 580.595312)scale(0.3 -0.3)">
       <defs>
        <path id="DejaVuSans-31" d="M 794 531 
L 1825 531 
L 1825 4091 
L 703 3866 
L 703 4441 
L 1819 4666 
L 2450 4666 
L 2450 531 
L 3481 531 
L 3481 0 
L 794 0 
L 794 531 
z
" transform="scale(0.015625)"/>
        <path id="DejaVuSans-30" d="M 2034 4250 
Q 1547 4250 1301 3770 
Q 1056 3291 1056 2328 
Q 1056 1369 1301 889 
Q 1547 409 2034 409 
Q 2525 409 2770 889 
Q 3016 1369 3016 2328 
Q 3016 3291 2770 3770 
Q 2525 4250 2034 4250 
z
M 2034 4750 
Q 2819 4750 3233 4129 
Q 3647 3509 3647 2328 
Q 3647 1150 3233 529 
Q 2819 -91 2034 -91 
Q 1250 -91 836 529 
Q 422 1150 422 2328 
Q 422 3509 836 4129 
Q 1250 4750 2034 4750 
z
" transform="scale(0.015625)"/>
        <path id="DejaVuSans-2212" d="M 678 2272 
L 4684 2272 
L 4684 1741 
L 678 1741 
L 678 2272 
z
" transform="scale(0.015625)"/>
        <path id="DejaVuSans-32" d="M 1228 531 
L 3431 531 
L 3431 0 
L 469 0 
L 469 531 
Q 828 903 1448 1529 
Q 2069 2156 2228 2338 
Q 2531 2678 2651 2914 
Q 2772 3150 2772 3378 
Q 2772 3750 2511 3984 
Q 2250 4219 1831 4219 
Q 1534 4219 1204 4116 
Q 875 4013 500 3803 
L 500 4441 
Q 881 4594 1212 4672 
Q 1544 4750 1819 4750 
Q 2544 4750 2975 4387 
Q 3406 4025 3406 3419 
Q 3406 3131 3298 2873 
Q 3191 2616 2906 2266 
Q 2828 2175 2409 1742 
Q 1991 1309 1228 531 
z
" transform="scale(0.015625)"/>
       </defs>
       <use xlink:href="#DejaVuSans-31" transform="translate(0 0.765625)"/>
       <use xlink:href="#DejaVuSans-30" transform="translate(63.623047 0.765625)"/>
       <use xlink:href="#DejaVuSans-2212" transform="translate(128.203125 39.046875)scale(0.7)"/>
       <use xlink:href="#DejaVuSans-32" transform="translate(186.855469 39.046875)scale(0.7)"/>
      </g>
     </g>
    </g>
    <g id="xtick_2">
     <g id="line2d_2">
      <g>
       <use xlink:href="#m8b68c0cc88" x="196.3" y="550.8" style="stroke: #000000; stroke-width: 0.8"/>
      </g>
     </g>
     <g id="text_2">
      <!-- $\mathdefault{10^{-1}}$ -->
      <g transform="translate(161.05 580.595312)scale(0.3 -0.3)">
       <use xlink:href="#DejaVuSans-31" transform="translate(0 0.684375)"/>
       <use xlink:href="#DejaVuSans-30" transform="translate(63.623047 0.684375)"/>
       <use xlink:href="#DejaVuSans-2212" transform="translate(128.203125 38.965625)scale(0.7)"/>
       <use xlink:href="#DejaVuSans-31" transform="translate(186.855469 38.965625)scale(0.7)"/>
      </g>
     </g>
    </g>
    <g id="xtick_3">
     <g id="line2d_3">
      <g>
       <use xlink:href="#m8b68c0cc88" x="307.9" y="550.8" style="stroke: #000000; stroke-width: 0.8"/>
      </g>
     </g>
     <g id="text_3">
      <!-- $\mathdefault{10^{0}}$ -->
      <g transform="translate(281.5 580.595312)scale(0.3 -0.3)">
       <use xlink:href="#DejaVuSans-31" transform="translate(0 0.765625)"/>
       <use xlink:href="#DejaVuSans-30" transform="translate(63.623047 0.765625)"/>
       <use xlink:href="#DejaVuSans-30" transform="translate(128.203125 39.046875)scale(0.7)"/>
      </g>
     </g>
    </g>
    <g id="xtick_4">
     <g id="line2d_4">
      <g>
       <use xlink:href="#m8b68c0cc88" x="419.5" y="550.8" style="stroke: #000000; stroke-width: 0.8"/>
      </g>
     </g>
     <g id="text_4">
      <!-- $\mathdefault{10^{1}}$ -->
      <g transform="translate(393.1 580.595312)scale(0.3 -0.3)">
       <use xlink:href="#DejaVuSans-31" transform="translate(0 0.684375)"/>
       <use xlink:href="#DejaVuSans-30" transform="translate(63.623047 0.684375)"/>
       <use xlink:href="#DejaVuSans-31" transform="translate(128.203125 38.965625)scale(0.7)"/>
      </g>
     </g>
    </g>
    <g id="xtick_5">
     <g id="line2d_5">
      <g>
       <use xlink:href="#m8b68c0cc88" x="531.1" y="550.8" style="stroke: #000000; stroke-width: 0.8"/>
      </g>
     </g>
     <g id="text_5">
      <!-- $\mathdefault{10^{2}}$ -->
      <g transform="translate(504.7 580.595312)scale(0.3 -0.3)">
       <use xlink:href="#DejaVuSans-31" transform="translate(0 0.765625)"/>
       <use xlink:href="#DejaVuSans-30" transform="translate(63.623047 0.765625)"/>
       <use xlink:href="#DejaVuSans-32" transform="translate(128.203125 39.046875)scale(0.7)"/>
      </g>
     </g>
    </g>
    <g id="xtick_6">
     <g id="line2d_6">
      <g>
       <use xlink:href="#m8b68c0cc88" x="642.7" y="550.8" style="stroke: #000000; stroke-width: 0.8"/>
      </g>
     </g>
     <g id="text_6">
      <!-- $\mathdefault{10^{3}}$ -->
      <g transform="translate(616.3 580.595312)scale(0.3 -0.3)">
       <defs>
        <path id="DejaVuSans-33" d="M 2597 2516 
Q 3050 2419 3304 2112 
Q 3559 1806 3559 1356 
Q 3559 666 3084 287 
Q 2609 -91 1734 -91 
Q 1441 -91 1130 -33 
Q 819 25 488 141 
L 488 750 
Q 750 597 1062 519 
Q 1375 441 1716 441 
Q 2309 441 2620 675 
Q 2931 909 2931 1356 
Q 2931 1769 2642 2001 
Q 2353 2234 1838 2234 
L 1294 2234 
L 1294 2753 
L 1863 2753 
Q 2328 2753 2575 2939 
Q 2822 3125 2822 3475 
Q 2822 3834 2567 4026 
Q 2313 4219 1838 4219 
Q 1578 4219 1281 4162 
Q 984 4106 628 3988 
L 628 4550 
Q 988 4650 1302 4700 
Q 1616 4750 1894 4750 
Q 2613 4750 3031 4423 
Q 3450 4097 3450 3541 
Q 3450 3153 3228 2886 
Q 3006 2619 2597 2516 
z
" transform="scale(0.015625)"/>
       </defs>
       <use xlink:href="#DejaVuSans-31" transform="translate(0 0.765625)"/>
       <use xlink:href="#DejaVuSans-30" transform="translate(63.623047 0.765625)"/>
       <use xlink:href="#DejaVuSans-33" transform="translate(128.203125 39.046875)scale(0.7)"/>
      </g>
     </g>
    </g>
    <g id="xtick_7">
     <g id="line2d_7">
      <defs>
       <path id="mecf9442f88" d="M 0 0 
L 0 2 
" style="stroke: #000000; stroke-width: 0.6"/>
      </defs>
      <g>
       <use xlink:href="#mecf9442f88" x="118.294948" y="550.8" style="stroke: #000000; stroke-width: 0.6"/>
      </g>
     </g>
    </g>
    <g id="xtick_8">
     <g id="line2d_8">
      <g>
       <use xlink:href="#mecf9442f88" x="137.946732" y="550.8" style="stroke: #000000; stroke-width: 0.6"/>
      </g>
     </g>
    </g>
    <g id="xtick_9">
     <g id="line2d_9">
      <g>
       <use xlink:href="#mecf9442f88" x="151.889895" y="550.8" style="stroke: #000000; stroke-width: 0.6"/>
      </g>
     </g>
    </g>
    <g id="xtick_10">
     <g id="line2d_10">
      <g>
       <use xlink:href="#mecf9442f88" x="162.705052" y="550.8" style="stroke: #000000; stroke-width: 0.6"/>
      </g>
     </g>
    </g>
    <g id="xtick_11">
     <g id="line2d_11">
      <g>
       <use xlink:href="#mecf9442f88" x="171.54168" y="550.8" style="stroke: #000000; stroke-width: 0.6"/>
      </g>
     </g>
    </g>
    <g id="xtick_12">
     <g id="line2d_12">
      <g>
       <use xlink:href="#mecf9442f88" x="179.012941" y="550.8" style="stroke: #000000; stroke-width: 0.6"/>
      </g>
     </g>
    </g>
    <g id="xtick_13">
     <g id="line2d_13">
      <g>
       <use xlink:href="#mecf9442f88" x="185.484843" y="550.8" style="stroke: #000000; stroke-width: 0.6"/>
      </g>
     </g>
    </g>
    <g id="xtick_14">
     <g id="line2d_14">
      <g>
       <use xlink:href="#mecf9442f88" x="191.193464" y="550.8" style="stroke: #000000; stroke-width: 0.6"/>
      </g>
     </g>
    </g>
    <g id="xtick_15">
     <g id="line2d_15">
      <g>
       <use xlink:href="#mecf9442f88" x="229.894948" y="550.8" style="stroke: #000000; stroke-width: 0.6"/>
      </g>
     </g>
    </g>
    <g id="xtick_16">
     <g id="line2d_16">
      <g>
       <use xlink:href="#mecf9442f88" x="249.546732" y="550.8" style="stroke: #000000; stroke-width: 0.6"/>
      </g>
     </g>
    </g>
    <g id="xtick_17">
     <g id="line2d_17">
      <g>
       <use xlink:href="#mecf9442f88" x="263.489895" y="550.8" style="stroke: #000000; stroke-width: 0.6"/>
      </g>
     </g>
    </g>
    <g id="xtick_18">
     <g id="line2d_18">
      <g>
       <use xlink:href="#mecf9442f88" x="274.305052" y="550.8" style="stroke: #000000; stroke-width: 0.6"/>
      </g>
     </g>
    </g>
    <g id="xtick_19">
     <g id="line2d_19">
      <g>
       <use xlink:href="#mecf9442f88" x="283.14168" y="550.8" style="stroke: #000000; stroke-width: 0.6"/>
      </g>
     </g>
    </g>
    <g id="xtick_20">
     <g id="line2d_20">
      <g>
       <use xlink:href="#mecf9442f88" x="290.612941" y="550.8" style="stroke: #000000; stroke-width: 0.6"/>
      </g>
     </g>
    </g>
    <g id="xtick_21">
     <g id="line2d_21">
      <g>
       <use xlink:href="#mecf9442f88" x="297.084843" y="550.8" style="stroke: #000000; stroke-width: 0.6"/>
      </g>
     </g>
    </g>
    <g id="xtick_22">
     <g id="line2d_22">
      <g>
       <use xlink:href="#mecf9442f88" x="302.793464" y="550.8" style="stroke: #000000; stroke-width: 0.6"/>
      </g>
     </g>
    </g>
    <g id="xtick_23">
     <g id="line2d_23">
      <g>
       <use xlink:href="#mecf9442f88" x="341.494948" y="550.8" style="stroke: #000000; stroke-width: 0.6"/>
      </g>
     </g>
    </g>
    <g id="xtick_24">
     <g id="line2d_24">
      <g>
       <use xlink:href="#mecf9442f88" x="361.146732" y="550.8" style="stroke: #000000; stroke-width: 0.6"/>
      </g>
     </g>
    </g>
    <g id="xtick_25">
     <g id="line2d_25">
      <g>
       <use xlink:href="#mecf9442f88" x="375.089895" y="550.8" style="stroke: #000000; stroke-width: 0.6"/>
      </g>
     </g>
    </g>
    <g id="xtick_26">
     <g id="line2d_26">
      <g>
       <use xlink:href="#mecf9442f88" x="385.905052" y="550.8" style="stroke: #000000; stroke-width: 0.6"/>
      </g>
     </g>
    </g>
    <g id="xtick_27">
     <g id="line2d_27">
      <g>
       <use xlink:href="#mecf9442f88" x="394.74168" y="550.8" style="stroke: #000000; stroke-width: 0.6"/>
      </g>
     </g>
    </g>
    <g id="xtick_28">
     <g id="line2d_28">
      <g>
       <use xlink:href="#mecf9442f88" x="402.212941" y="550.8" style="stroke: #000000; stroke-width: 0.6"/>
      </g>
     </g>
    </g>
    <g id="xtick_29">
     <g id="line2d_29">
      <g>
       <use xlink:href="#mecf9442f88" x="408.684843" y="550.8" style="stroke: #000000; stroke-width: 0.6"/>
      </g>
     </g>
    </g>
    <g id="xtick_30">
     <g id="line2d_30">
      <g>
       <use xlink:href="#mecf9442f88" x="414.393464" y="550.8" style="stroke: #000000; stroke-width: 0.6"/>
      </g>
     </g>
    </g>
    <g id="xtick_31">
     <g id="line2d_31">
      <g>
       <use xlink:href="#mecf9442f88" x="453.094948" y="550.8" style="stroke: #000000; stroke-width: 0.6"/>
      </g>
     </g>
    </g>
    <g id="xtick_32">
     <g id="line2d_32">
      <g>
       <use xlink:href="#mecf9442f88" x="472.746732" y="550.8" style="stroke: #000000; stroke-width: 0.6"/>
      </g>
     </g>
    </g>
    <g id="xtick_33">
     <g id="line2d_33">
      <g>
       <use xlink:href="#mecf9442f88" x="486.689895" y="550.8" style="stroke: #000000; stroke-width: 0.6"/>
      </g>
     </g>
    </g>
    <g id="xtick_34">
     <g id="line2d_34">
      <g>
       <use xlink:href="#mecf9442f88" x="497.505052" y="550.8" style="stroke: #000000; stroke-width: 0.6"/>
      </g>
     </g>
    </g>
    <g id="xtick_35">
     <g id="line2d_35">
      <g>
       <use xlink:href="#mecf9442f88" x="506.34168" y="550.8" style="stroke: #000000; stroke-width: 0.6"/>
      </g>
     </g>
    </g>
    <g id="xtick_36">
     <g id="line2d_36">
      <g>
       <use xlink:href="#mecf9442f88" x="513.812941" y="550.8" style="stroke: #000000; stroke-width: 0.6"/>
      </g>
     </g>
    </g>
    <g id="xtick_37">
     <g id="line2d_37">
      <g>
       <use xlink:href="#mecf9442f88" x="520.284843" y="550.8" style="stroke: #000000; stroke-width: 0.6"/>
      </g>
     </g>
    </g>
    <g id="xtick_38">
     <g id="line2d_38">
      <g>
       <use xlink:href="#mecf9442f88" x="525.993464" y="550.8" style="stroke: #000000; stroke-width: 0.6"/>
      </g>
     </g>
    </g>
    <g id="xtick_39">
     <g id="line2d_39">
      <g>
       <use xlink:href="#mecf9442f88" x="564.694948" y="550.8" style="stroke: #000000; stroke-width: 0.6"/>
      </g>
     </g>
    </g>
    <g id="xtick_40">
     <g id="line2d_40">
      <g>
       <use xlink:href="#mecf9442f88" x="584.346732" y="550.8" style="stroke: #000000; stroke-width: 0.6"/>
      </g>
     </g>
    </g>
    <g id="xtick_41">
     <g id="line2d_41">
      <g>
       <use xlink:href="#mecf9442f88" x="598.289895" y="550.8" style="stroke: #000000; stroke-width: 0.6"/>
      </g>
     </g>
    </g>
    <g id="xtick_42">
     <g id="line2d_42">
      <g>
       <use xlink:href="#mecf9442f88" x="609.105052" y="550.8" style="stroke: #000000; stroke-width: 0.6"/>
      </g>
     </g>
    </g>
    <g id="xtick_43">
     <g id="line2d_43">
      <g>
       <use xlink:href="#mecf9442f88" x="617.94168" y="550.8" style="stroke: #000000; stroke-width: 0.6"/>
      </g>
     </g>
    </g>
    <g id="xtick_44">
     <g id="line2d_44">
      <g>
       <use xlink:href="#mecf9442f88" x="625.412941" y="550.8" style="stroke: #000000; stroke-width: 0.6"/>
      </g>
     </g>
    </g>
    <g id="xtick_45">
     <g id="line2d_45">
      <g>
       <use xlink:href="#mecf9442f88" x="631.884843" y="550.8" style="stroke: #000000; stroke-width: 0.6"/>
      </g>
     </g>
    </g>
    <g id="xtick_46">
     <g id="line2d_46">
      <g>
       <use xlink:href="#mecf9442f88" x="637.593464" y="550.8" style="stroke: #000000; stroke-width: 0.6"/>
      </g>
     </g>
    </g>
   </g>
   <g id="matplotlib.axis_2">
    <g id="ytick_1">
     <g id="line2d_47">
      <defs>
       <path id="m40d4b1edef" d="M 0 0 
L -3.5 0 
" style="stroke: #000000; stroke-width: 0.8"/>
      </defs>
      <g>
       <use xlink:href="#m40d4b1edef" x="84.7" y="550.8" style="stroke: #000000; stroke-width: 0.8"/>
      </g>
     </g>
     <g id="text_7">
      <!-- $\mathdefault{10^{-1}}$ -->
      <g transform="translate(7.2 562.197656)scale(0.3 -0.3)">
       <use xlink:href="#DejaVuSans-31" transform="translate(0 0.684375)"/>
       <use xlink:href="#DejaVuSans-30" transform="translate(63.623047 0.684375)"/>
       <use xlink:href="#DejaVuSans-2212" transform="translate(128.203125 38.965625)scale(0.7)"/>
       <use xlink:href="#DejaVuSans-31" transform="translate(186.855469 38.965625)scale(0.7)"/>
      </g>
     </g>
    </g>
    <g id="ytick_2">
     <g id="line2d_48">
      <g>
       <use xlink:href="#m40d4b1edef" x="84.7" y="411.525732" style="stroke: #000000; stroke-width: 0.8"/>
      </g>
     </g>
     <g id="text_8">
      <!-- $\mathdefault{10^{0}}$ -->
      <g transform="translate(24.9 422.923388)scale(0.3 -0.3)">
       <use xlink:href="#DejaVuSans-31" transform="translate(0 0.765625)"/>
       <use xlink:href="#DejaVuSans-30" transform="translate(63.623047 0.765625)"/>
       <use xlink:href="#DejaVuSans-30" transform="translate(128.203125 39.046875)scale(0.7)"/>
      </g>
     </g>
    </g>
    <g id="ytick_3">
     <g id="line2d_49">
      <g>
       <use xlink:href="#m40d4b1edef" x="84.7" y="272.251464" style="stroke: #000000; stroke-width: 0.8"/>
      </g>
     </g>
     <g id="text_9">
      <!-- $\mathdefault{10^{1}}$ -->
      <g transform="translate(24.9 283.649121)scale(0.3 -0.3)">
       <use xlink:href="#DejaVuSans-31" transform="translate(0 0.684375)"/>
       <use xlink:href="#DejaVuSans-30" transform="translate(63.623047 0.684375)"/>
       <use xlink:href="#DejaVuSans-31" transform="translate(128.203125 38.965625)scale(0.7)"/>
      </g>
     </g>
    </g>
    <g id="ytick_4">
     <g id="line2d_50">
      <g>
       <use xlink:href="#m40d4b1edef" x="84.7" y="132.977197" style="stroke: #000000; stroke-width: 0.8"/>
      </g>
     </g>
     <g id="text_10">
      <!-- $\mathdefault{10^{2}}$ -->
      <g transform="translate(24.9 144.374853)scale(0.3 -0.3)">
       <use xlink:href="#DejaVuSans-31" transform="translate(0 0.765625)"/>
       <use xlink:href="#DejaVuSans-30" transform="translate(63.623047 0.765625)"/>
       <use xlink:href="#DejaVuSans-32" transform="translate(128.203125 39.046875)scale(0.7)"/>
      </g>
     </g>
    </g>
    <g id="ytick_5">
     <g id="line2d_51">
      <defs>
       <path id="m492d730c8d" d="M 0 0 
L -2 0 
" style="stroke: #000000; stroke-width: 0.6"/>
      </defs>
      <g>
       <use xlink:href="#m492d730c8d" x="84.7" y="508.874268" style="stroke: #000000; stroke-width: 0.6"/>
      </g>
     </g>
    </g>
    <g id="ytick_6">
     <g id="line2d_52">
      <g>
       <use xlink:href="#m492d730c8d" x="84.7" y="484.349287" style="stroke: #000000; stroke-width: 0.6"/>
      </g>
     </g>
    </g>
    <g id="ytick_7">
     <g id="line2d_53">
      <g>
       <use xlink:href="#m492d730c8d" x="84.7" y="466.948536" style="stroke: #000000; stroke-width: 0.6"/>
      </g>
     </g>
    </g>
    <g id="ytick_8">
     <g id="line2d_54">
      <g>
       <use xlink:href="#m492d730c8d" x="84.7" y="453.451464" style="stroke: #000000; stroke-width: 0.6"/>
      </g>
     </g>
    </g>
    <g id="ytick_9">
     <g id="line2d_55">
      <g>
       <use xlink:href="#m492d730c8d" x="84.7" y="442.423554" style="stroke: #000000; stroke-width: 0.6"/>
      </g>
     </g>
    </g>
    <g id="ytick_10">
     <g id="line2d_56">
      <g>
       <use xlink:href="#m492d730c8d" x="84.7" y="433.099589" style="stroke: #000000; stroke-width: 0.6"/>
      </g>
     </g>
    </g>
    <g id="ytick_11">
     <g id="line2d_57">
      <g>
       <use xlink:href="#m492d730c8d" x="84.7" y="425.022803" style="stroke: #000000; stroke-width: 0.6"/>
      </g>
     </g>
    </g>
    <g id="ytick_12">
     <g id="line2d_58">
      <g>
       <use xlink:href="#m492d730c8d" x="84.7" y="417.898573" style="stroke: #000000; stroke-width: 0.6"/>
      </g>
     </g>
    </g>
    <g id="ytick_13">
     <g id="line2d_59">
      <g>
       <use xlink:href="#m492d730c8d" x="84.7" y="369.6" style="stroke: #000000; stroke-width: 0.6"/>
      </g>
     </g>
    </g>
    <g id="ytick_14">
     <g id="line2d_60">
      <g>
       <use xlink:href="#m492d730c8d" x="84.7" y="345.075019" style="stroke: #000000; stroke-width: 0.6"/>
      </g>
     </g>
    </g>
    <g id="ytick_15">
     <g id="line2d_61">
      <g>
       <use xlink:href="#m492d730c8d" x="84.7" y="327.674268" style="stroke: #000000; stroke-width: 0.6"/>
      </g>
     </g>
    </g>
    <g id="ytick_16">
     <g id="line2d_62">
      <g>
       <use xlink:href="#m492d730c8d" x="84.7" y="314.177197" style="stroke: #000000; stroke-width: 0.6"/>
      </g>
     </g>
    </g>
    <g id="ytick_17">
     <g id="line2d_63">
      <g>
       <use xlink:href="#m492d730c8d" x="84.7" y="303.149287" style="stroke: #000000; stroke-width: 0.6"/>
      </g>
     </g>
    </g>
    <g id="ytick_18">
     <g id="line2d_64">
      <g>
       <use xlink:href="#m492d730c8d" x="84.7" y="293.825322" style="stroke: #000000; stroke-width: 0.6"/>
      </g>
     </g>
    </g>
    <g id="ytick_19">
     <g id="line2d_65">
      <g>
       <use xlink:href="#m492d730c8d" x="84.7" y="285.748536" style="stroke: #000000; stroke-width: 0.6"/>
      </g>
     </g>
    </g>
    <g id="ytick_20">
     <g id="line2d_66">
      <g>
       <use xlink:href="#m492d730c8d" x="84.7" y="278.624305" style="stroke: #000000; stroke-width: 0.6"/>
      </g>
     </g>
    </g>
    <g id="ytick_21">
     <g id="line2d_67">
      <g>
       <use xlink:href="#m492d730c8d" x="84.7" y="230.325732" style="stroke: #000000; stroke-width: 0.6"/>
      </g>
     </g>
    </g>
    <g id="ytick_22">
     <g id="line2d_68">
      <g>
       <use xlink:href="#m492d730c8d" x="84.7" y="205.800751" style="stroke: #000000; stroke-width: 0.6"/>
      </g>
     </g>
    </g>
    <g id="ytick_23">
     <g id="line2d_69">
      <g>
       <use xlink:href="#m492d730c8d" x="84.7" y="188.4" style="stroke: #000000; stroke-width: 0.6"/>
      </g>
     </g>
    </g>
    <g id="ytick_24">
     <g id="line2d_70">
      <g>
       <use xlink:href="#m492d730c8d" x="84.7" y="174.902929" style="stroke: #000000; stroke-width: 0.6"/>
      </g>
     </g>
    </g>
    <g id="ytick_25">
     <g id="line2d_71">
      <g>
       <use xlink:href="#m492d730c8d" x="84.7" y="163.875019" style="stroke: #000000; stroke-width: 0.6"/>
      </g>
     </g>
    </g>
    <g id="ytick_26">
     <g id="line2d_72">
      <g>
       <use xlink:href="#m492d730c8d" x="84.7" y="154.551054" style="stroke: #000000; stroke-width: 0.6"/>
      </g>
     </g>
    </g>
    <g id="ytick_27">
     <g id="line2d_73">
      <g>
       <use xlink:href="#m492d730c8d" x="84.7" y="146.474268" style="stroke: #000000; stroke-width: 0.6"/>
      </g>
     </g>
    </g>
    <g id="ytick_28">
     <g id="line2d_74">
      <g>
       <use xlink:href="#m492d730c8d" x="84.7" y="139.350038" style="stroke: #000000; stroke-width: 0.6"/>
      </g>
     </g>
    </g>
    <g id="ytick_29">
     <g id="line2d_75">
      <g>
       <use xlink:href="#m492d730c8d" x="84.7" y="91.051464" style="stroke: #000000; stroke-width: 0.6"/>
      </g>
     </g>
    </g>
    <g id="ytick_30">
     <g id="line2d_76">
      <g>
       <use xlink:href="#m492d730c8d" x="84.7" y="66.526483" style="stroke: #000000; stroke-width: 0.6"/>
      </g>
     </g>
    </g>
    <g id="ytick_31">
     <g id="line2d_77">
      <g>
       <use xlink:href="#m492d730c8d" x="84.7" y="49.125732" style="stroke: #000000; stroke-width: 0.6"/>
      </g>
     </g>
    </g>
    <g id="ytick_32">
     <g id="line2d_78">
      <g>
       <use xlink:href="#m492d730c8d" x="84.7" y="35.628661" style="stroke: #000000; stroke-width: 0.6"/>
      </g>
     </g>
    </g>
    <g id="ytick_33">
     <g id="line2d_79">
      <g>
       <use xlink:href="#m492d730c8d" x="84.7" y="24.600751" style="stroke: #000000; stroke-width: 0.6"/>
      </g>
     </g>
    </g>
    <g id="ytick_34">
     <g id="line2d_80">
      <g>
       <use xlink:href="#m492d730c8d" x="84.7" y="15.276786" style="stroke: #000000; stroke-width: 0.6"/>
      </g>
     </g>
    </g>
    <g id="ytick_35">
     <g id="line2d_81">
      <g>
       <use xlink:href="#m492d730c8d" x="84.7" y="7.2" style="stroke: #000000; stroke-width: 0.6"/>
      </g>
     </g>
    </g>
   </g>
   <g id="line2d_82">
    <path d="M 84.7 16.056238 
L 89.172946 20.22243 
L 93.645892 24.712692 
L 98.118838 29.526099 
L 102.591784 34.658221 
L 107.064729 40.101291 
L 111.537675 45.844502 
L 117.128858 53.424882 
L 122.72004 61.422144 
L 128.311222 69.80161 
L 135.020641 80.309396 
L 141.73006 91.249011 
L 149.557715 104.471785 
L 158.503607 120.071105 
L 168.567735 138.082795 
L 181.986573 162.577229 
L 215.533667 224.021456 
L 225.597796 241.907063 
L 234.543687 257.349382 
L 242.371343 270.3966 
L 249.080762 281.15555 
L 255.79018 291.454091 
L 261.381363 299.637637 
L 266.972545 307.420419 
L 272.563727 314.769542 
L 277.036673 320.317384 
L 281.509619 325.557677 
L 285.982565 330.481565 
L 290.455511 335.083446 
L 294.928457 339.361174 
L 299.401403 343.316143 
L 303.874349 346.953202 
L 308.347295 350.280444 
L 312.82024 353.308867 
L 317.293186 356.051933 
L 321.766132 358.525078 
L 326.239078 360.745187 
L 330.712024 362.730075 
L 335.18497 364.498011 
L 339.657916 366.067279 
L 345.249098 367.776766 
L 350.840281 369.23741 
L 356.431463 370.480613 
L 363.140882 371.725802 
L 369.850301 372.743678 
L 377.677956 373.695124 
L 386.623848 374.533759 
L 396.687976 375.23379 
L 407.870341 375.788856 
L 422.407415 376.267795 
L 440.299198 376.617981 
L 464.900401 376.861894 
L 505.156914 377.006249 
L 600.207014 377.056489 
L 642.7 377.058233 
L 642.7 377.058233 
" clip-path="url(#p2afedb3bc8)" style="fill: none; stroke: #000000; stroke-width: 2; stroke-linecap: square"/>
   </g>
   <g id="line2d_83">
    <path d="M 84.7 178.57629 
L 91.409419 180.687036 
L 98.118838 183.069801 
L 103.71002 185.278515 
L 109.301202 187.70208 
L 114.892385 190.350479 
L 120.483567 193.232063 
L 126.074749 196.353194 
L 131.665932 199.717935 
L 137.257114 203.327774 
L 142.848297 207.181427 
L 148.439479 211.274713 
L 155.148898 216.492747 
L 161.858317 222.027685 
L 168.567735 227.856103 
L 176.395391 234.988485 
L 184.223046 242.428277 
L 193.168938 251.230449 
L 205.469539 263.681787 
L 233.425451 292.13211 
L 242.371343 300.883904 
L 250.198998 308.266115 
L 258.026653 315.329598 
L 264.736072 321.091125 
L 271.445491 326.553157 
L 278.15491 331.693565 
L 283.746092 335.719559 
L 289.337275 339.504436 
L 294.928457 343.044846 
L 300.519639 346.340305 
L 306.110822 349.393055 
L 311.702004 352.207839 
L 317.293186 354.791618 
L 322.884369 357.153241 
L 328.475551 359.303087 
L 335.18497 361.619677 
L 341.894389 363.669416 
L 348.603808 365.474611 
L 355.313226 367.057734 
L 363.140882 368.653406 
L 370.968537 370.010242 
L 379.914429 371.3083 
L 388.860321 372.377148 
L 398.924449 373.351732 
L 410.106814 374.204513 
L 422.407415 374.922053 
L 436.944489 375.544291 
L 454.836273 376.069411 
L 476.082766 376.463262 
L 505.156914 376.762105 
L 547.6499 376.951871 
L 627.044689 377.042957 
L 642.7 377.04793 
L 642.7 377.04793 
" clip-path="url(#p2afedb3bc8)" style="fill: none; stroke: #808080; stroke-width: 2; stroke-linecap: square"/>
   </g>
   <g id="line2d_84">
    <path d="M 259.14489 314.769958 
L 512.17029 -1 
L 512.17029 -1 
" clip-path="url(#p2afedb3bc8)" style="fill: none; stroke: #000000; stroke-width: 3; stroke-linecap: square"/>
   </g>
   <g id="patch_3">
    <path d="M 84.7 550.8 
L 84.7 7.2 
" style="fill: none; stroke: #000000; stroke-width: 0.8; stroke-linejoin: miter; stroke-linecap: square"/>
   </g>
   <g id="patch_4">
    <path d="M 642.7 550.8 
L 642.7 7.2 
" style="fill: none; stroke: #000000; stroke-width: 0.8; stroke-linejoin: miter; stroke-linecap: square"/>
   </g>
   <g id="patch_5">
    <path d="M 84.7 550.8 
L 642.7 550.8 
" style="fill: none; stroke: #000000; stroke-width: 0.8; stroke-linejoin: miter; stroke-linecap: square"/>
   </g>
   <g id="patch_6">
    <path d="M 84.7 7.2 
L 642.7 7.2 
" style="fill: none; stroke: #000000; stroke-width: 0.8; stroke-linejoin: miter; stroke-linecap: square"/>
   </g>
  </g>
 </g>
 <defs>
  <clipPath id="p2afedb3bc8">
   <rect x="84.7" y="7.2" width="558" height="543.6"/>
  </clipPath>
 </defs>
</svg>
