<?xml version="1.0" encoding="utf-8" standalone="no"?>
<!DOCTYPE svg PUBLIC "-//W3C//DTD SVG 1.1//EN"
  "http://www.w3.org/Graphics/SVG/1.1/DTD/svg11.dtd">
<svg xmlns:xlink="http://www.w3.org/1999/xlink" width="685.15pt" height="594.034375pt" viewBox="0 0 685.15 594.034375" xmlns="http://www.w3.org/2000/svg" version="1.1">
 <metadata>
  <rdf:RDF xmlns:dc="http://purl.org/dc/elements/1.1/" xmlns:cc="http://creativecommons.org/ns#" xmlns:rdf="http://www.w3.org/1999/02/22-rdf-syntax-ns#">
   <cc:Work>
    <dc:type rdf:resource="http://purl.org/dc/dcmitype/StillImage"/>
    <dc:date>2024-03-06T12:07:49.344130</dc:date>
    <dc:format>image/svg+xml</dc:format>
    <dc:creator>
     <cc:Agent>
      <dc:title>Matplotlib v3.5.3, https://matplotlib.org/</dc:title>
     </cc:Agent>
    </dc:creator>
   </cc:Work>
  </rdf:RDF>
 </metadata>
 <defs>
  <style type="text/css">*{stroke-linejoin: round; stroke-linecap: butt}</style>
 </defs>
 <g id="figure_1">
  <g id="patch_1">
   <path d="M 0 594.034375 
L 685.15 594.034375 
L 685.15 0 
L 0 0 
L 0 594.034375 
z
" style="fill: none"/>
  </g>
  <g id="axes_1">
   <g id="patch_2">
    <path d="M 84.7 550.8 
L 642.7 550.8 
L 642.7 7.2 
L 84.7 7.2 
z
" style="fill: #ffffff"/>
   </g>
   <g id="matplotlib.axis_1">
    <g id="xtick_1">
     <g id="line2d_1">
      <defs>
       <path id="m535ee01edf" d="M 0 0 
L 0 3.5 
" style="stroke: #000000; stroke-width: 0.8"/>
      </defs>
      <g>
       <use xlink:href="#m535ee01edf" x="238.562936" y="550.8" style="stroke: #000000; stroke-width: 0.8"/>
      </g>
     </g>
     <g id="text_1">
      <!-- $\mathdefault{10^{-6}}$ -->
      <g transform="translate(203.312936 580.595312)scale(0.3 -0.3)">
       <defs>
        <path id="DejaVuSans-31" d="M 794 531 
L 1825 531 
L 1825 4091 
L 703 3866 
L 703 4441 
L 1819 4666 
L 2450 4666 
L 2450 531 
L 3481 531 
L 3481 0 
L 794 0 
L 794 531 
z
" transform="scale(0.015625)"/>
        <path id="DejaVuSans-30" d="M 2034 4250 
Q 1547 4250 1301 3770 
Q 1056 3291 1056 2328 
Q 1056 1369 1301 889 
Q 1547 409 2034 409 
Q 2525 409 2770 889 
Q 3016 1369 3016 2328 
Q 3016 3291 2770 3770 
Q 2525 4250 2034 4250 
z
M 2034 4750 
Q 2819 4750 3233 4129 
Q 3647 3509 3647 2328 
Q 3647 1150 3233 529 
Q 2819 -91 2034 -91 
Q 1250 -91 836 529 
Q 422 1150 422 2328 
Q 422 3509 836 4129 
Q 1250 4750 2034 4750 
z
" transform="scale(0.015625)"/>
        <path id="DejaVuSans-2212" d="M 678 2272 
L 4684 2272 
L 4684 1741 
L 678 1741 
L 678 2272 
z
" transform="scale(0.015625)"/>
        <path id="DejaVuSans-36" d="M 2113 2584 
Q 1688 2584 1439 2293 
Q 1191 2003 1191 1497 
Q 1191 994 1439 701 
Q 1688 409 2113 409 
Q 2538 409 2786 701 
Q 3034 994 3034 1497 
Q 3034 2003 2786 2293 
Q 2538 2584 2113 2584 
z
M 3366 4563 
L 3366 3988 
Q 3128 4100 2886 4159 
Q 2644 4219 2406 4219 
Q 1781 4219 1451 3797 
Q 1122 3375 1075 2522 
Q 1259 2794 1537 2939 
Q 1816 3084 2150 3084 
Q 2853 3084 3261 2657 
Q 3669 2231 3669 1497 
Q 3669 778 3244 343 
Q 2819 -91 2113 -91 
Q 1303 -91 875 529 
Q 447 1150 447 2328 
Q 447 3434 972 4092 
Q 1497 4750 2381 4750 
Q 2619 4750 2861 4703 
Q 3103 4656 3366 4563 
z
" transform="scale(0.015625)"/>
       </defs>
       <use xlink:href="#DejaVuSans-31" transform="translate(0 0.765625)"/>
       <use xlink:href="#DejaVuSans-30" transform="translate(63.623047 0.765625)"/>
       <use xlink:href="#DejaVuSans-2212" transform="translate(128.203125 39.046875)scale(0.7)"/>
       <use xlink:href="#DejaVuSans-36" transform="translate(186.855469 39.046875)scale(0.7)"/>
      </g>
     </g>
    </g>
    <g id="xtick_2">
     <g id="line2d_2">
      <g>
       <use xlink:href="#m535ee01edf" x="440.631468" y="550.8" style="stroke: #000000; stroke-width: 0.8"/>
      </g>
     </g>
     <g id="text_2">
      <!-- $\mathdefault{10^{-4}}$ -->
      <g transform="translate(405.381468 580.595312)scale(0.3 -0.3)">
       <defs>
        <path id="DejaVuSans-34" d="M 2419 4116 
L 825 1625 
L 2419 1625 
L 2419 4116 
z
M 2253 4666 
L 3047 4666 
L 3047 1625 
L 3713 1625 
L 3713 1100 
L 3047 1100 
L 3047 0 
L 2419 0 
L 2419 1100 
L 313 1100 
L 313 1709 
L 2253 4666 
z
" transform="scale(0.015625)"/>
       </defs>
       <use xlink:href="#DejaVuSans-31" transform="translate(0 0.684375)"/>
       <use xlink:href="#DejaVuSans-30" transform="translate(63.623047 0.684375)"/>
       <use xlink:href="#DejaVuSans-2212" transform="translate(128.203125 38.965625)scale(0.7)"/>
       <use xlink:href="#DejaVuSans-34" transform="translate(186.855469 38.965625)scale(0.7)"/>
      </g>
     </g>
    </g>
    <g id="xtick_3">
     <g id="line2d_3">
      <g>
       <use xlink:href="#m535ee01edf" x="642.7" y="550.8" style="stroke: #000000; stroke-width: 0.8"/>
      </g>
     </g>
     <g id="text_3">
      <!-- $\mathdefault{10^{-2}}$ -->
      <g transform="translate(607.45 580.595312)scale(0.3 -0.3)">
       <defs>
        <path id="DejaVuSans-32" d="M 1228 531 
L 3431 531 
L 3431 0 
L 469 0 
L 469 531 
Q 828 903 1448 1529 
Q 2069 2156 2228 2338 
Q 2531 2678 2651 2914 
Q 2772 3150 2772 3378 
Q 2772 3750 2511 3984 
Q 2250 4219 1831 4219 
Q 1534 4219 1204 4116 
Q 875 4013 500 3803 
L 500 4441 
Q 881 4594 1212 4672 
Q 1544 4750 1819 4750 
Q 2544 4750 2975 4387 
Q 3406 4025 3406 3419 
Q 3406 3131 3298 2873 
Q 3191 2616 2906 2266 
Q 2828 2175 2409 1742 
Q 1991 1309 1228 531 
z
" transform="scale(0.015625)"/>
       </defs>
       <use xlink:href="#DejaVuSans-31" transform="translate(0 0.765625)"/>
       <use xlink:href="#DejaVuSans-30" transform="translate(63.623047 0.765625)"/>
       <use xlink:href="#DejaVuSans-2212" transform="translate(128.203125 39.046875)scale(0.7)"/>
       <use xlink:href="#DejaVuSans-32" transform="translate(186.855469 39.046875)scale(0.7)"/>
      </g>
     </g>
    </g>
   </g>
   <g id="matplotlib.axis_2">
    <g id="ytick_1">
     <g id="line2d_4">
      <defs>
       <path id="m5c1b39cac0" d="M 0 0 
L -3.5 0 
" style="stroke: #000000; stroke-width: 0.8"/>
      </defs>
      <g>
       <use xlink:href="#m5c1b39cac0" x="84.7" y="550.8" style="stroke: #000000; stroke-width: 0.8"/>
      </g>
     </g>
     <g id="text_4">
      <!-- $\mathdefault{10^{-8}}$ -->
      <g transform="translate(7.2 562.197656)scale(0.3 -0.3)">
       <defs>
        <path id="DejaVuSans-38" d="M 2034 2216 
Q 1584 2216 1326 1975 
Q 1069 1734 1069 1313 
Q 1069 891 1326 650 
Q 1584 409 2034 409 
Q 2484 409 2743 651 
Q 3003 894 3003 1313 
Q 3003 1734 2745 1975 
Q 2488 2216 2034 2216 
z
M 1403 2484 
Q 997 2584 770 2862 
Q 544 3141 544 3541 
Q 544 4100 942 4425 
Q 1341 4750 2034 4750 
Q 2731 4750 3128 4425 
Q 3525 4100 3525 3541 
Q 3525 3141 3298 2862 
Q 3072 2584 2669 2484 
Q 3125 2378 3379 2068 
Q 3634 1759 3634 1313 
Q 3634 634 3220 271 
Q 2806 -91 2034 -91 
Q 1263 -91 848 271 
Q 434 634 434 1313 
Q 434 1759 690 2068 
Q 947 2378 1403 2484 
z
M 1172 3481 
Q 1172 3119 1398 2916 
Q 1625 2713 2034 2713 
Q 2441 2713 2670 2916 
Q 2900 3119 2900 3481 
Q 2900 3844 2670 4047 
Q 2441 4250 2034 4250 
Q 1625 4250 1398 4047 
Q 1172 3844 1172 3481 
z
" transform="scale(0.015625)"/>
       </defs>
       <use xlink:href="#DejaVuSans-31" transform="translate(0 0.765625)"/>
       <use xlink:href="#DejaVuSans-30" transform="translate(63.623047 0.765625)"/>
       <use xlink:href="#DejaVuSans-2212" transform="translate(128.203125 39.046875)scale(0.7)"/>
       <use xlink:href="#DejaVuSans-38" transform="translate(186.855469 39.046875)scale(0.7)"/>
      </g>
     </g>
    </g>
    <g id="ytick_2">
     <g id="line2d_5">
      <g>
       <use xlink:href="#m5c1b39cac0" x="84.7" y="419.828301" style="stroke: #000000; stroke-width: 0.8"/>
      </g>
     </g>
     <g id="text_5">
      <!-- $\mathdefault{10^{-6}}$ -->
      <g transform="translate(7.2 431.225957)scale(0.3 -0.3)">
       <use xlink:href="#DejaVuSans-31" transform="translate(0 0.765625)"/>
       <use xlink:href="#DejaVuSans-30" transform="translate(63.623047 0.765625)"/>
       <use xlink:href="#DejaVuSans-2212" transform="translate(128.203125 39.046875)scale(0.7)"/>
       <use xlink:href="#DejaVuSans-36" transform="translate(186.855469 39.046875)scale(0.7)"/>
      </g>
     </g>
    </g>
    <g id="ytick_3">
     <g id="line2d_6">
      <g>
       <use xlink:href="#m5c1b39cac0" x="84.7" y="288.856602" style="stroke: #000000; stroke-width: 0.8"/>
      </g>
     </g>
     <g id="text_6">
      <!-- $\mathdefault{10^{-4}}$ -->
      <g transform="translate(7.2 300.254259)scale(0.3 -0.3)">
       <use xlink:href="#DejaVuSans-31" transform="translate(0 0.684375)"/>
       <use xlink:href="#DejaVuSans-30" transform="translate(63.623047 0.684375)"/>
       <use xlink:href="#DejaVuSans-2212" transform="translate(128.203125 38.965625)scale(0.7)"/>
       <use xlink:href="#DejaVuSans-34" transform="translate(186.855469 38.965625)scale(0.7)"/>
      </g>
     </g>
    </g>
    <g id="ytick_4">
     <g id="line2d_7">
      <g>
       <use xlink:href="#m5c1b39cac0" x="84.7" y="157.884904" style="stroke: #000000; stroke-width: 0.8"/>
      </g>
     </g>
     <g id="text_7">
      <!-- $\mathdefault{10^{-2}}$ -->
      <g transform="translate(7.2 169.28256)scale(0.3 -0.3)">
       <use xlink:href="#DejaVuSans-31" transform="translate(0 0.765625)"/>
       <use xlink:href="#DejaVuSans-30" transform="translate(63.623047 0.765625)"/>
       <use xlink:href="#DejaVuSans-2212" transform="translate(128.203125 39.046875)scale(0.7)"/>
       <use xlink:href="#DejaVuSans-32" transform="translate(186.855469 39.046875)scale(0.7)"/>
      </g>
     </g>
    </g>
    <g id="ytick_5">
     <g id="line2d_8">
      <g>
       <use xlink:href="#m5c1b39cac0" x="84.7" y="26.913205" style="stroke: #000000; stroke-width: 0.8"/>
      </g>
     </g>
     <g id="text_8">
      <!-- $\mathdefault{10^{0}}$ -->
      <g transform="translate(24.9 38.310861)scale(0.3 -0.3)">
       <use xlink:href="#DejaVuSans-31" transform="translate(0 0.765625)"/>
       <use xlink:href="#DejaVuSans-30" transform="translate(63.623047 0.765625)"/>
       <use xlink:href="#DejaVuSans-30" transform="translate(128.203125 39.046875)scale(0.7)"/>
      </g>
     </g>
    </g>
   </g>
   <g id="patch_3">
    <path d="M 214.545945 595.034375 
L 214.545945 26.913205 
L 235.228988 26.913205 
L 235.228988 51.615402 
L 255.912031 51.615402 
L 255.912031 82.31315 
L 276.595074 82.31315 
L 276.595074 157.368318 
L 297.278117 157.368318 
L 297.278117 203.140962 
L 317.961159 203.140962 
L 317.961159 595.034375 
" clip-path="url(#p2012d4c833)" style="fill: none; stroke: #ffd700; stroke-linejoin: miter"/>
   </g>
   <g id="patch_4">
    <path d="M 92.498396 595.034375 
L 92.498396 26.913205 
L 117.389975 26.913205 
L 117.389975 50.36846 
L 142.281554 50.36846 
L 142.281554 73.210106 
L 167.173133 73.210106 
L 167.173133 93.592522 
L 192.064712 93.592522 
L 192.064712 107.231649 
L 216.956291 107.231649 
L 216.956291 140.752766 
L 241.84787 140.752766 
L 241.84787 160.465971 
L 266.739449 160.465971 
L 266.739449 180.179176 
L 291.631028 180.179176 
L 291.631028 180.179176 
L 316.522607 180.179176 
L 316.522607 595.034375 
" clip-path="url(#p2012d4c833)" style="fill: none; stroke: #ff4500; stroke-linejoin: miter"/>
   </g>
   <g id="line2d_9">
    <path d="M 92.498396 26.913205 
L 99.716954 31.591948 
L 106.935512 36.270692 
L 114.15407 40.949435 
L 121.372627 45.628178 
L 128.591185 50.306922 
L 135.809743 54.985665 
L 143.028301 59.664408 
L 150.246859 64.343151 
L 157.465417 69.021895 
L 164.683975 73.700638 
L 171.902533 78.379381 
L 179.121091 83.058125 
L 186.339649 87.736868 
L 193.558207 92.415611 
L 200.776765 97.094355 
L 207.995322 101.773098 
L 215.21388 106.451841 
L 222.432438 111.130585 
L 229.650996 115.809328 
L 236.869554 120.488071 
L 244.088112 125.166815 
L 251.30667 129.845558 
L 258.525228 134.524301 
L 265.743786 139.203044 
L 272.962344 143.881788 
L 280.180902 148.560531 
L 287.399459 153.239274 
L 294.618017 157.918018 
L 301.836575 162.596761 
L 309.055133 167.275504 
L 316.273691 171.954248 
L 323.492249 176.632991 
L 330.710807 181.311734 
L 337.929365 185.990478 
L 345.147923 190.669221 
L 352.366481 195.347964 
L 359.585039 200.026708 
L 366.803597 204.705451 
L 374.022154 209.384194 
L 381.240712 214.062938 
L 388.45927 218.741681 
L 395.677828 223.420424 
L 402.896386 228.099167 
L 410.114944 232.777911 
L 417.333502 237.456654 
L 424.55206 242.135397 
L 431.770618 246.814141 
L 438.989176 251.492884 
L 446.207734 256.171627 
L 453.426292 260.850371 
L 460.644849 265.529114 
L 467.863407 270.207857 
L 475.081965 274.886601 
L 482.300523 279.565344 
L 489.519081 284.244087 
L 496.737639 288.922831 
L 503.956197 293.601574 
L 511.174755 298.280317 
L 518.393313 302.95906 
L 525.611871 307.637804 
L 532.830429 312.316547 
L 540.048987 316.99529 
L 547.267544 321.674034 
L 554.486102 326.352777 
L 561.70466 331.03152 
L 568.923218 335.710264 
L 576.141776 340.389007 
L 583.360334 345.06775 
L 590.578892 349.746494 
L 597.79745 354.425237 
L 605.016008 359.10398 
L 612.234566 363.782724 
L 619.453124 368.461467 
L 626.671681 373.14021 
L 633.890239 377.818954 
L 641.108797 382.497697 
L 648.327355 387.17644 
L 655.545913 391.855183 
L 662.764471 396.533927 
L 669.983029 401.21267 
L 677.201587 405.891413 
L 684.420145 410.570157 
L 686.15 411.691371 
" clip-path="url(#p2012d4c833)" style="fill: none; stroke-dasharray: 11.1,4.8; stroke-dashoffset: 0; stroke: #000000; stroke-width: 3"/>
   </g>
   <g id="patch_5">
    <path d="M 84.7 550.8 
L 84.7 7.2 
" style="fill: none; stroke: #000000; stroke-width: 0.8; stroke-linejoin: miter; stroke-linecap: square"/>
   </g>
   <g id="patch_6">
    <path d="M 642.7 550.8 
L 642.7 7.2 
" style="fill: none; stroke: #000000; stroke-width: 0.8; stroke-linejoin: miter; stroke-linecap: square"/>
   </g>
   <g id="patch_7">
    <path d="M 84.7 550.8 
L 642.7 550.8 
" style="fill: none; stroke: #000000; stroke-width: 0.8; stroke-linejoin: miter; stroke-linecap: square"/>
   </g>
   <g id="patch_8">
    <path d="M 84.7 7.2 
L 642.7 7.2 
" style="fill: none; stroke: #000000; stroke-width: 0.8; stroke-linejoin: miter; stroke-linecap: square"/>
   </g>
  </g>
 </g>
 <defs>
  <clipPath id="p2012d4c833">
   <rect x="84.7" y="7.2" width="558" height="543.6"/>
  </clipPath>
 </defs>
</svg>
