<?xml version="1.0" encoding="utf-8" standalone="no"?>
<!DOCTYPE svg PUBLIC "-//W3C//DTD SVG 1.1//EN"
  "http://www.w3.org/Graphics/SVG/1.1/DTD/svg11.dtd">
<svg xmlns:xlink="http://www.w3.org/1999/xlink" width="1537.220313pt" height="605.432031pt" viewBox="0 0 1537.220313 605.432031" xmlns="http://www.w3.org/2000/svg" version="1.1">
 <metadata>
  <rdf:RDF xmlns:dc="http://purl.org/dc/elements/1.1/" xmlns:cc="http://creativecommons.org/ns#" xmlns:rdf="http://www.w3.org/1999/02/22-rdf-syntax-ns#">
   <cc:Work>
    <dc:type rdf:resource="http://purl.org/dc/dcmitype/StillImage"/>
    <dc:date>2024-02-19T23:43:54.073787</dc:date>
    <dc:format>image/svg+xml</dc:format>
    <dc:creator>
     <cc:Agent>
      <dc:title>Matplotlib v3.5.3, https://matplotlib.org/</dc:title>
     </cc:Agent>
    </dc:creator>
   </cc:Work>
  </rdf:RDF>
 </metadata>
 <defs>
  <style type="text/css">*{stroke-linejoin: round; stroke-linecap: butt}</style>
 </defs>
 <g id="figure_1">
  <g id="patch_1">
   <path d="M 0 605.432031 
L 1537.220312 605.432031 
L 1537.220312 0 
L 0 0 
L 0 605.432031 
z
" style="fill: none"/>
  </g>
  <g id="axes_1">
   <g id="patch_2">
    <path d="M 61.909375 562.197656 
L 526.909375 562.197656 
L 526.909375 18.597656 
L 61.909375 18.597656 
z
" style="fill: #ffffff"/>
   </g>
   <g id="PolyCollection_1">
    <defs>
     <path id="m99377d39e9" d="M 252.136648 -323.86723 
L 252.136648 -274.40376 
L 280.318466 -247.478474 
L 308.500284 -225.827321 
L 336.682102 -164.925461 
L 364.86392 -159.019247 
L 393.045739 -134.875754 
L 421.227557 -134.068294 
L 449.409375 -103.501429 
L 477.591193 -118.252205 
L 505.773011 -105.27114 
L 505.773011 -145.550856 
L 505.773011 -145.550856 
L 477.591193 -162.527807 
L 449.409375 -138.566255 
L 421.227557 -177.790213 
L 393.045739 -182.433812 
L 364.86392 -196.047981 
L 336.682102 -205.427017 
L 308.500284 -285.960437 
L 280.318466 -296.151879 
L 252.136648 -323.86723 
z
" style="stroke: #000080; stroke-opacity: 0.2"/>
    </defs>
    <g clip-path="url(#p8576d26727)">
     <use xlink:href="#m99377d39e9" x="0" y="605.432031" style="fill: #000080; fill-opacity: 0.2; stroke: #000080; stroke-opacity: 0.2"/>
    </g>
   </g>
   <g id="PolyCollection_2">
    <defs>
     <path id="m2510799925" d="M 167.591193 -394.76817 
L 167.591193 -366.610695 
L 195.773011 -356.154192 
L 223.95483 -316.968568 
L 252.136648 -310.983216 
L 280.318466 -272.802867 
L 308.500284 -248.887205 
L 336.682102 -220.030158 
L 364.86392 -186.921573 
L 393.045739 -163.032589 
L 421.227557 -132.620249 
L 421.227557 -156.960347 
L 421.227557 -156.960347 
L 393.045739 -187.708124 
L 364.86392 -214.066116 
L 336.682102 -247.703566 
L 308.500284 -277.10831 
L 280.318466 -300.671574 
L 252.136648 -340.827666 
L 223.95483 -344.533507 
L 195.773011 -384.194263 
L 167.591193 -394.76817 
z
" style="stroke: #7dff7a; stroke-opacity: 0.2"/>
    </defs>
    <g clip-path="url(#p8576d26727)">
     <use xlink:href="#m2510799925" x="0" y="605.432031" style="fill: #7dff7a; fill-opacity: 0.2; stroke: #7dff7a; stroke-opacity: 0.2"/>
    </g>
   </g>
   <g id="PolyCollection_3">
    <defs>
     <path id="mf74ff69ee8" d="M 83.045739 -576.494499 
L 83.045739 -547.985095 
L 111.227557 -540.653139 
L 139.409375 -540.107727 
L 167.591193 -511.066803 
L 195.773011 -502.297931 
L 223.95483 -467.869931 
L 252.136648 -408.433311 
L 280.318466 -360.230487 
L 308.500284 -305.611371 
L 336.682102 -255.333807 
L 336.682102 -283.168543 
L 336.682102 -283.168543 
L 308.500284 -333.276383 
L 280.318466 -389.185039 
L 252.136648 -435.738339 
L 223.95483 -497.129503 
L 195.773011 -531.296575 
L 167.591193 -539.677679 
L 139.409375 -569.537023 
L 111.227557 -570.721467 
L 83.045739 -576.494499 
z
" style="stroke: #800000; stroke-opacity: 0.2"/>
    </defs>
    <g clip-path="url(#p8576d26727)">
     <use xlink:href="#mf74ff69ee8" x="0" y="605.432031" style="fill: #800000; fill-opacity: 0.2; stroke: #800000; stroke-opacity: 0.2"/>
    </g>
   </g>
   <g id="matplotlib.axis_1">
    <g id="xtick_1">
     <g id="line2d_1">
      <defs>
       <path id="m2e9a3af290" d="M 0 0 
L 0 3.5 
" style="stroke: #000000; stroke-width: 0.8"/>
      </defs>
      <g>
       <use xlink:href="#m2e9a3af290" x="193.041911" y="562.197656" style="stroke: #000000; stroke-width: 0.8"/>
      </g>
     </g>
     <g id="text_1">
      <!-- $\mathdefault{10^{-1}}$ -->
      <g transform="translate(157.791911 591.992969)scale(0.3 -0.3)">
       <defs>
        <path id="DejaVuSans-31" d="M 794 531 
L 1825 531 
L 1825 4091 
L 703 3866 
L 703 4441 
L 1819 4666 
L 2450 4666 
L 2450 531 
L 3481 531 
L 3481 0 
L 794 0 
L 794 531 
z
" transform="scale(0.015625)"/>
        <path id="DejaVuSans-30" d="M 2034 4250 
Q 1547 4250 1301 3770 
Q 1056 3291 1056 2328 
Q 1056 1369 1301 889 
Q 1547 409 2034 409 
Q 2525 409 2770 889 
Q 3016 1369 3016 2328 
Q 3016 3291 2770 3770 
Q 2525 4250 2034 4250 
z
M 2034 4750 
Q 2819 4750 3233 4129 
Q 3647 3509 3647 2328 
Q 3647 1150 3233 529 
Q 2819 -91 2034 -91 
Q 1250 -91 836 529 
Q 422 1150 422 2328 
Q 422 3509 836 4129 
Q 1250 4750 2034 4750 
z
" transform="scale(0.015625)"/>
        <path id="DejaVuSans-2212" d="M 678 2272 
L 4684 2272 
L 4684 1741 
L 678 1741 
L 678 2272 
z
" transform="scale(0.015625)"/>
       </defs>
       <use xlink:href="#DejaVuSans-31" transform="translate(0 0.684375)"/>
       <use xlink:href="#DejaVuSans-30" transform="translate(63.623047 0.684375)"/>
       <use xlink:href="#DejaVuSans-2212" transform="translate(128.203125 38.965625)scale(0.7)"/>
       <use xlink:href="#DejaVuSans-31" transform="translate(186.855469 38.965625)scale(0.7)"/>
      </g>
     </g>
    </g>
    <g id="xtick_2">
     <g id="line2d_2">
      <g>
       <use xlink:href="#m2e9a3af290" x="362.13282" y="562.197656" style="stroke: #000000; stroke-width: 0.8"/>
      </g>
     </g>
     <g id="text_2">
      <!-- $\mathdefault{10^{1}}$ -->
      <g transform="translate(335.73282 591.992969)scale(0.3 -0.3)">
       <use xlink:href="#DejaVuSans-31" transform="translate(0 0.684375)"/>
       <use xlink:href="#DejaVuSans-30" transform="translate(63.623047 0.684375)"/>
       <use xlink:href="#DejaVuSans-31" transform="translate(128.203125 38.965625)scale(0.7)"/>
      </g>
     </g>
    </g>
   </g>
   <g id="matplotlib.axis_2">
    <g id="ytick_1">
     <g id="line2d_3">
      <defs>
       <path id="m3a468dbcfa" d="M 0 0 
L -3.5 0 
" style="stroke: #000000; stroke-width: 0.8"/>
      </defs>
      <g>
       <use xlink:href="#m3a468dbcfa" x="61.909375" y="562.197656" style="stroke: #000000; stroke-width: 0.8"/>
      </g>
     </g>
     <g id="text_3">
      <!-- 1.0 -->
      <g transform="translate(7.2 573.595312)scale(0.3 -0.3)">
       <defs>
        <path id="DejaVuSans-2e" d="M 684 794 
L 1344 794 
L 1344 0 
L 684 0 
L 684 794 
z
" transform="scale(0.015625)"/>
       </defs>
       <use xlink:href="#DejaVuSans-31"/>
       <use xlink:href="#DejaVuSans-2e" x="63.623047"/>
       <use xlink:href="#DejaVuSans-30" x="95.410156"/>
      </g>
     </g>
    </g>
    <g id="ytick_2">
     <g id="line2d_4">
      <g>
       <use xlink:href="#m3a468dbcfa" x="61.909375" y="501.797656" style="stroke: #000000; stroke-width: 0.8"/>
      </g>
     </g>
     <g id="text_4">
      <!-- 1.5 -->
      <g transform="translate(7.2 513.195312)scale(0.3 -0.3)">
       <defs>
        <path id="DejaVuSans-35" d="M 691 4666 
L 3169 4666 
L 3169 4134 
L 1269 4134 
L 1269 2991 
Q 1406 3038 1543 3061 
Q 1681 3084 1819 3084 
Q 2600 3084 3056 2656 
Q 3513 2228 3513 1497 
Q 3513 744 3044 326 
Q 2575 -91 1722 -91 
Q 1428 -91 1123 -41 
Q 819 9 494 109 
L 494 744 
Q 775 591 1075 516 
Q 1375 441 1709 441 
Q 2250 441 2565 725 
Q 2881 1009 2881 1497 
Q 2881 1984 2565 2268 
Q 2250 2553 1709 2553 
Q 1456 2553 1204 2497 
Q 953 2441 691 2322 
L 691 4666 
z
" transform="scale(0.015625)"/>
       </defs>
       <use xlink:href="#DejaVuSans-31"/>
       <use xlink:href="#DejaVuSans-2e" x="63.623047"/>
       <use xlink:href="#DejaVuSans-35" x="95.410156"/>
      </g>
     </g>
    </g>
    <g id="ytick_3">
     <g id="line2d_5">
      <g>
       <use xlink:href="#m3a468dbcfa" x="61.909375" y="441.397656" style="stroke: #000000; stroke-width: 0.8"/>
      </g>
     </g>
     <g id="text_5">
      <!-- 2.0 -->
      <g transform="translate(7.2 452.795312)scale(0.3 -0.3)">
       <defs>
        <path id="DejaVuSans-32" d="M 1228 531 
L 3431 531 
L 3431 0 
L 469 0 
L 469 531 
Q 828 903 1448 1529 
Q 2069 2156 2228 2338 
Q 2531 2678 2651 2914 
Q 2772 3150 2772 3378 
Q 2772 3750 2511 3984 
Q 2250 4219 1831 4219 
Q 1534 4219 1204 4116 
Q 875 4013 500 3803 
L 500 4441 
Q 881 4594 1212 4672 
Q 1544 4750 1819 4750 
Q 2544 4750 2975 4387 
Q 3406 4025 3406 3419 
Q 3406 3131 3298 2873 
Q 3191 2616 2906 2266 
Q 2828 2175 2409 1742 
Q 1991 1309 1228 531 
z
" transform="scale(0.015625)"/>
       </defs>
       <use xlink:href="#DejaVuSans-32"/>
       <use xlink:href="#DejaVuSans-2e" x="63.623047"/>
       <use xlink:href="#DejaVuSans-30" x="95.410156"/>
      </g>
     </g>
    </g>
    <g id="ytick_4">
     <g id="line2d_6">
      <g>
       <use xlink:href="#m3a468dbcfa" x="61.909375" y="380.997656" style="stroke: #000000; stroke-width: 0.8"/>
      </g>
     </g>
     <g id="text_6">
      <!-- 2.5 -->
      <g transform="translate(7.2 392.395312)scale(0.3 -0.3)">
       <use xlink:href="#DejaVuSans-32"/>
       <use xlink:href="#DejaVuSans-2e" x="63.623047"/>
       <use xlink:href="#DejaVuSans-35" x="95.410156"/>
      </g>
     </g>
    </g>
    <g id="ytick_5">
     <g id="line2d_7">
      <g>
       <use xlink:href="#m3a468dbcfa" x="61.909375" y="320.597656" style="stroke: #000000; stroke-width: 0.8"/>
      </g>
     </g>
     <g id="text_7">
      <!-- 3.0 -->
      <g transform="translate(7.2 331.995312)scale(0.3 -0.3)">
       <defs>
        <path id="DejaVuSans-33" d="M 2597 2516 
Q 3050 2419 3304 2112 
Q 3559 1806 3559 1356 
Q 3559 666 3084 287 
Q 2609 -91 1734 -91 
Q 1441 -91 1130 -33 
Q 819 25 488 141 
L 488 750 
Q 750 597 1062 519 
Q 1375 441 1716 441 
Q 2309 441 2620 675 
Q 2931 909 2931 1356 
Q 2931 1769 2642 2001 
Q 2353 2234 1838 2234 
L 1294 2234 
L 1294 2753 
L 1863 2753 
Q 2328 2753 2575 2939 
Q 2822 3125 2822 3475 
Q 2822 3834 2567 4026 
Q 2313 4219 1838 4219 
Q 1578 4219 1281 4162 
Q 984 4106 628 3988 
L 628 4550 
Q 988 4650 1302 4700 
Q 1616 4750 1894 4750 
Q 2613 4750 3031 4423 
Q 3450 4097 3450 3541 
Q 3450 3153 3228 2886 
Q 3006 2619 2597 2516 
z
" transform="scale(0.015625)"/>
       </defs>
       <use xlink:href="#DejaVuSans-33"/>
       <use xlink:href="#DejaVuSans-2e" x="63.623047"/>
       <use xlink:href="#DejaVuSans-30" x="95.410156"/>
      </g>
     </g>
    </g>
    <g id="ytick_6">
     <g id="line2d_8">
      <g>
       <use xlink:href="#m3a468dbcfa" x="61.909375" y="260.197656" style="stroke: #000000; stroke-width: 0.8"/>
      </g>
     </g>
     <g id="text_8">
      <!-- 3.5 -->
      <g transform="translate(7.2 271.595312)scale(0.3 -0.3)">
       <use xlink:href="#DejaVuSans-33"/>
       <use xlink:href="#DejaVuSans-2e" x="63.623047"/>
       <use xlink:href="#DejaVuSans-35" x="95.410156"/>
      </g>
     </g>
    </g>
    <g id="ytick_7">
     <g id="line2d_9">
      <g>
       <use xlink:href="#m3a468dbcfa" x="61.909375" y="199.797656" style="stroke: #000000; stroke-width: 0.8"/>
      </g>
     </g>
     <g id="text_9">
      <!-- 4.0 -->
      <g transform="translate(7.2 211.195312)scale(0.3 -0.3)">
       <defs>
        <path id="DejaVuSans-34" d="M 2419 4116 
L 825 1625 
L 2419 1625 
L 2419 4116 
z
M 2253 4666 
L 3047 4666 
L 3047 1625 
L 3713 1625 
L 3713 1100 
L 3047 1100 
L 3047 0 
L 2419 0 
L 2419 1100 
L 313 1100 
L 313 1709 
L 2253 4666 
z
" transform="scale(0.015625)"/>
       </defs>
       <use xlink:href="#DejaVuSans-34"/>
       <use xlink:href="#DejaVuSans-2e" x="63.623047"/>
       <use xlink:href="#DejaVuSans-30" x="95.410156"/>
      </g>
     </g>
    </g>
    <g id="ytick_8">
     <g id="line2d_10">
      <g>
       <use xlink:href="#m3a468dbcfa" x="61.909375" y="139.397656" style="stroke: #000000; stroke-width: 0.8"/>
      </g>
     </g>
     <g id="text_10">
      <!-- 4.5 -->
      <g transform="translate(7.2 150.795312)scale(0.3 -0.3)">
       <use xlink:href="#DejaVuSans-34"/>
       <use xlink:href="#DejaVuSans-2e" x="63.623047"/>
       <use xlink:href="#DejaVuSans-35" x="95.410156"/>
      </g>
     </g>
    </g>
    <g id="ytick_9">
     <g id="line2d_11">
      <g>
       <use xlink:href="#m3a468dbcfa" x="61.909375" y="78.997656" style="stroke: #000000; stroke-width: 0.8"/>
      </g>
     </g>
     <g id="text_11">
      <!-- 5.0 -->
      <g transform="translate(7.2 90.395312)scale(0.3 -0.3)">
       <use xlink:href="#DejaVuSans-35"/>
       <use xlink:href="#DejaVuSans-2e" x="63.623047"/>
       <use xlink:href="#DejaVuSans-30" x="95.410156"/>
      </g>
     </g>
    </g>
    <g id="ytick_10">
     <g id="line2d_12">
      <g>
       <use xlink:href="#m3a468dbcfa" x="61.909375" y="18.597656" style="stroke: #000000; stroke-width: 0.8"/>
      </g>
     </g>
     <g id="text_12">
      <!-- 5.5 -->
      <g transform="translate(7.2 29.995312)scale(0.3 -0.3)">
       <use xlink:href="#DejaVuSans-35"/>
       <use xlink:href="#DejaVuSans-2e" x="63.623047"/>
       <use xlink:href="#DejaVuSans-35" x="95.410156"/>
      </g>
     </g>
    </g>
   </g>
   <g id="line2d_13">
    <path d="M 364.86392 465.557656 
L 393.045739 465.557656 
L 421.227557 477.637656 
L 449.409375 477.637656 
L 477.591193 477.637656 
L 505.773011 477.637656 
" clip-path="url(#p8576d26727)" style="fill: none; stroke-dasharray: 4,6.6; stroke-dashoffset: 0; stroke: #000080; stroke-width: 4"/>
   </g>
   <g id="line2d_14">
    <path d="M 252.136648 306.246203 
L 280.318466 334.562479 
L 308.500284 349.439827 
L 336.682102 420.444076 
L 364.86392 428.610848 
L 393.045739 446.465702 
L 421.227557 450.12598 
L 449.409375 485.056352 
L 477.591193 464.665384 
L 505.773011 480.844076 
" clip-path="url(#p8576d26727)" style="fill: none; stroke: #000080; stroke-width: 3; stroke-linecap: square"/>
   </g>
   <g id="line2d_15">
    <path d="M 280.318466 344.757656 
L 308.500284 368.917656 
L 336.682102 405.157656 
L 364.86392 429.317656 
L 393.045739 453.477656 
L 421.227557 465.557656 
" clip-path="url(#p8576d26727)" style="fill: none; stroke-dasharray: 4,6.6; stroke-dashoffset: 0; stroke: #7dff7a; stroke-width: 4"/>
   </g>
   <g id="line2d_16">
    <path d="M 167.591193 224.447038 
L 195.773011 235.735656 
L 223.95483 274.202352 
L 252.136648 280.148337 
L 280.318466 317.921396 
L 308.500284 342.50794 
L 336.682102 371.882968 
L 364.86392 404.350693 
L 393.045739 431.196767 
L 421.227557 460.975587 
" clip-path="url(#p8576d26727)" style="fill: none; stroke: #7dff7a; stroke-width: 3; stroke-linecap: square"/>
   </g>
   <g id="line2d_17">
    <path d="M 195.773011 151.477656 
L 223.95483 199.797656 
L 252.136648 248.117656 
L 280.318466 284.357656 
L 308.500284 332.677656 
L 336.682102 368.917656 
" clip-path="url(#p8576d26727)" style="fill: none; stroke-dasharray: 4,6.6; stroke-dashoffset: 0; stroke: #800000; stroke-width: 4"/>
   </g>
   <g id="line2d_18">
    <path d="M 83.045739 43.216696 
L 111.227557 50.682136 
L 139.409375 50.198936 
L 167.591193 80.640536 
L 195.773011 88.516696 
L 223.95483 123.452056 
L 252.136648 183.465496 
L 280.318466 231.906296 
L 308.500284 285.976376 
L 336.682102 334.924536 
" clip-path="url(#p8576d26727)" style="fill: none; stroke: #800000; stroke-width: 3; stroke-linecap: square"/>
   </g>
   <g id="patch_3">
    <path d="M 61.909375 562.197656 
L 61.909375 18.597656 
" style="fill: none; stroke: #000000; stroke-width: 0.8; stroke-linejoin: miter; stroke-linecap: square"/>
   </g>
   <g id="patch_4">
    <path d="M 526.909375 562.197656 
L 526.909375 18.597656 
" style="fill: none; stroke: #000000; stroke-width: 0.8; stroke-linejoin: miter; stroke-linecap: square"/>
   </g>
   <g id="patch_5">
    <path d="M 61.909375 562.197656 
L 526.909375 562.197656 
" style="fill: none; stroke: #000000; stroke-width: 0.8; stroke-linejoin: miter; stroke-linecap: square"/>
   </g>
   <g id="patch_6">
    <path d="M 61.909375 18.597656 
L 526.909375 18.597656 
" style="fill: none; stroke: #000000; stroke-width: 0.8; stroke-linejoin: miter; stroke-linecap: square"/>
   </g>
  </g>
  <g id="axes_2">
   <g id="patch_7">
    <path d="M 712.909375 562.197656 
L 1177.909375 562.197656 
L 1177.909375 18.597656 
L 712.909375 18.597656 
z
" style="fill: #ffffff"/>
   </g>
   <g id="PolyCollection_4">
    <defs>
     <path id="m5a2a96ffe0" d="M 903.136648 -163.89641 
L 903.136648 -156.597907 
L 931.318466 -155.647134 
L 959.500284 -162.465866 
L 987.682102 -175.334248 
L 1015.86392 -198.198976 
L 1044.045739 -241.305182 
L 1072.227557 -296.643036 
L 1100.409375 -357.411289 
L 1128.591193 -430.688406 
L 1156.773011 -500.775692 
L 1156.773011 -522.176636 
L 1156.773011 -522.176636 
L 1128.591193 -449.794921 
L 1100.409375 -379.243751 
L 1072.227557 -317.615504 
L 1044.045739 -260.176695 
L 1015.86392 -211.468362 
L 987.682102 -186.809615 
L 959.500284 -171.774335 
L 931.318466 -163.372332 
L 903.136648 -163.89641 
z
" style="stroke: #000080; stroke-opacity: 0.2"/>
    </defs>
    <g clip-path="url(#pc4d2483c31)">
     <use xlink:href="#m5a2a96ffe0" x="0" y="605.432031" style="fill: #000080; fill-opacity: 0.2; stroke: #000080; stroke-opacity: 0.2"/>
    </g>
   </g>
   <g id="PolyCollection_5">
    <defs>
     <path id="m5aa7aceae1" d="M 818.591193 -157.009158 
L 818.591193 -153.356244 
L 846.773011 -157.28853 
L 874.95483 -160.249736 
L 903.136648 -170.77835 
L 931.318466 -190.01 
L 959.500284 -215.583072 
L 987.682102 -260.85132 
L 1015.86392 -301.05551 
L 1044.045739 -369.857481 
L 1072.227557 -435.167029 
L 1072.227557 -449.431046 
L 1072.227557 -449.431046 
L 1044.045739 -383.921529 
L 1015.86392 -313.047341 
L 987.682102 -272.277271 
L 959.500284 -224.663768 
L 931.318466 -196.800798 
L 903.136648 -176.899248 
L 874.95483 -164.688799 
L 846.773011 -161.214124 
L 818.591193 -157.009158 
z
" style="stroke: #7dff7a; stroke-opacity: 0.2"/>
    </defs>
    <g clip-path="url(#pc4d2483c31)">
     <use xlink:href="#m5aa7aceae1" x="0" y="605.432031" style="fill: #7dff7a; fill-opacity: 0.2; stroke: #7dff7a; stroke-opacity: 0.2"/>
    </g>
   </g>
   <g id="PolyCollection_6">
    <defs>
     <path id="m0119a04dda" d="M 734.045739 -145.793143 
L 734.045739 -142.321105 
L 762.227557 -142.080903 
L 790.409375 -147.046006 
L 818.591193 -152.016464 
L 846.773011 -160.496099 
L 874.95483 -177.142783 
L 903.136648 -200.286421 
L 931.318466 -229.795915 
L 959.500284 -269.643969 
L 987.682102 -315.100629 
L 987.682102 -324.612859 
L 987.682102 -324.612859 
L 959.500284 -279.1421 
L 931.318466 -238.530137 
L 903.136648 -207.85597 
L 874.95483 -183.553957 
L 846.773011 -166.200562 
L 818.591193 -156.548318 
L 790.409375 -151.153134 
L 762.227557 -145.728289 
L 734.045739 -145.793143 
z
" style="stroke: #800000; stroke-opacity: 0.2"/>
    </defs>
    <g clip-path="url(#pc4d2483c31)">
     <use xlink:href="#m0119a04dda" x="0" y="605.432031" style="fill: #800000; fill-opacity: 0.2; stroke: #800000; stroke-opacity: 0.2"/>
    </g>
   </g>
   <g id="matplotlib.axis_3">
    <g id="xtick_3">
     <g id="line2d_19">
      <g>
       <use xlink:href="#m2e9a3af290" x="844.041911" y="562.197656" style="stroke: #000000; stroke-width: 0.8"/>
      </g>
     </g>
     <g id="text_13">
      <!-- $\mathdefault{10^{-1}}$ -->
      <g transform="translate(808.791911 591.992969)scale(0.3 -0.3)">
       <use xlink:href="#DejaVuSans-31" transform="translate(0 0.684375)"/>
       <use xlink:href="#DejaVuSans-30" transform="translate(63.623047 0.684375)"/>
       <use xlink:href="#DejaVuSans-2212" transform="translate(128.203125 38.965625)scale(0.7)"/>
       <use xlink:href="#DejaVuSans-31" transform="translate(186.855469 38.965625)scale(0.7)"/>
      </g>
     </g>
    </g>
    <g id="xtick_4">
     <g id="line2d_20">
      <g>
       <use xlink:href="#m2e9a3af290" x="1013.13282" y="562.197656" style="stroke: #000000; stroke-width: 0.8"/>
      </g>
     </g>
     <g id="text_14">
      <!-- $\mathdefault{10^{1}}$ -->
      <g transform="translate(986.73282 591.992969)scale(0.3 -0.3)">
       <use xlink:href="#DejaVuSans-31" transform="translate(0 0.684375)"/>
       <use xlink:href="#DejaVuSans-30" transform="translate(63.623047 0.684375)"/>
       <use xlink:href="#DejaVuSans-31" transform="translate(128.203125 38.965625)scale(0.7)"/>
      </g>
     </g>
    </g>
   </g>
   <g id="matplotlib.axis_4">
    <g id="ytick_11">
     <g id="line2d_21">
      <g>
       <use xlink:href="#m3a468dbcfa" x="712.909375" y="451.369519" style="stroke: #000000; stroke-width: 0.8"/>
      </g>
     </g>
     <g id="text_15">
      <!-- $\mathdefault{10^{0}}$ -->
      <g transform="translate(653.109375 462.767176)scale(0.3 -0.3)">
       <use xlink:href="#DejaVuSans-31" transform="translate(0 0.765625)"/>
       <use xlink:href="#DejaVuSans-30" transform="translate(63.623047 0.765625)"/>
       <use xlink:href="#DejaVuSans-30" transform="translate(128.203125 39.046875)scale(0.7)"/>
      </g>
     </g>
    </g>
    <g id="ytick_12">
     <g id="line2d_22">
      <g>
       <use xlink:href="#m3a468dbcfa" x="712.909375" y="223.791276" style="stroke: #000000; stroke-width: 0.8"/>
      </g>
     </g>
     <g id="text_16">
      <!-- $\mathdefault{10^{1}}$ -->
      <g transform="translate(653.109375 235.188932)scale(0.3 -0.3)">
       <use xlink:href="#DejaVuSans-31" transform="translate(0 0.684375)"/>
       <use xlink:href="#DejaVuSans-30" transform="translate(63.623047 0.684375)"/>
       <use xlink:href="#DejaVuSans-31" transform="translate(128.203125 38.965625)scale(0.7)"/>
      </g>
     </g>
    </g>
    <g id="ytick_13">
     <g id="line2d_23">
      <defs>
       <path id="m3894b77165" d="M 0 0 
L -2 0 
" style="stroke: #000000; stroke-width: 0.6"/>
      </defs>
      <g>
       <use xlink:href="#m3894b77165" x="712.909375" y="541.932008" style="stroke: #000000; stroke-width: 0.6"/>
      </g>
     </g>
    </g>
    <g id="ytick_14">
     <g id="line2d_24">
      <g>
       <use xlink:href="#m3894b77165" x="712.909375" y="519.877397" style="stroke: #000000; stroke-width: 0.6"/>
      </g>
     </g>
    </g>
    <g id="ytick_15">
     <g id="line2d_25">
      <g>
       <use xlink:href="#m3894b77165" x="712.909375" y="501.857468" style="stroke: #000000; stroke-width: 0.6"/>
      </g>
     </g>
    </g>
    <g id="ytick_16">
     <g id="line2d_26">
      <g>
       <use xlink:href="#m3894b77165" x="712.909375" y="486.621835" style="stroke: #000000; stroke-width: 0.6"/>
      </g>
     </g>
    </g>
    <g id="ytick_17">
     <g id="line2d_27">
      <g>
       <use xlink:href="#m3894b77165" x="712.909375" y="473.42413" style="stroke: #000000; stroke-width: 0.6"/>
      </g>
     </g>
    </g>
    <g id="ytick_18">
     <g id="line2d_28">
      <g>
       <use xlink:href="#m3894b77165" x="712.909375" y="461.782929" style="stroke: #000000; stroke-width: 0.6"/>
      </g>
     </g>
    </g>
    <g id="ytick_19">
     <g id="line2d_29">
      <g>
       <use xlink:href="#m3894b77165" x="712.909375" y="382.861642" style="stroke: #000000; stroke-width: 0.6"/>
      </g>
     </g>
    </g>
    <g id="ytick_20">
     <g id="line2d_30">
      <g>
       <use xlink:href="#m3894b77165" x="712.909375" y="342.787102" style="stroke: #000000; stroke-width: 0.6"/>
      </g>
     </g>
    </g>
    <g id="ytick_21">
     <g id="line2d_31">
      <g>
       <use xlink:href="#m3894b77165" x="712.909375" y="314.353764" style="stroke: #000000; stroke-width: 0.6"/>
      </g>
     </g>
    </g>
    <g id="ytick_22">
     <g id="line2d_32">
      <g>
       <use xlink:href="#m3894b77165" x="712.909375" y="292.299154" style="stroke: #000000; stroke-width: 0.6"/>
      </g>
     </g>
    </g>
    <g id="ytick_23">
     <g id="line2d_33">
      <g>
       <use xlink:href="#m3894b77165" x="712.909375" y="274.279225" style="stroke: #000000; stroke-width: 0.6"/>
      </g>
     </g>
    </g>
    <g id="ytick_24">
     <g id="line2d_34">
      <g>
       <use xlink:href="#m3894b77165" x="712.909375" y="259.043592" style="stroke: #000000; stroke-width: 0.6"/>
      </g>
     </g>
    </g>
    <g id="ytick_25">
     <g id="line2d_35">
      <g>
       <use xlink:href="#m3894b77165" x="712.909375" y="245.845887" style="stroke: #000000; stroke-width: 0.6"/>
      </g>
     </g>
    </g>
    <g id="ytick_26">
     <g id="line2d_36">
      <g>
       <use xlink:href="#m3894b77165" x="712.909375" y="234.204685" style="stroke: #000000; stroke-width: 0.6"/>
      </g>
     </g>
    </g>
    <g id="ytick_27">
     <g id="line2d_37">
      <g>
       <use xlink:href="#m3894b77165" x="712.909375" y="155.283398" style="stroke: #000000; stroke-width: 0.6"/>
      </g>
     </g>
    </g>
    <g id="ytick_28">
     <g id="line2d_38">
      <g>
       <use xlink:href="#m3894b77165" x="712.909375" y="115.208859" style="stroke: #000000; stroke-width: 0.6"/>
      </g>
     </g>
    </g>
    <g id="ytick_29">
     <g id="line2d_39">
      <g>
       <use xlink:href="#m3894b77165" x="712.909375" y="86.775521" style="stroke: #000000; stroke-width: 0.6"/>
      </g>
     </g>
    </g>
    <g id="ytick_30">
     <g id="line2d_40">
      <g>
       <use xlink:href="#m3894b77165" x="712.909375" y="64.72091" style="stroke: #000000; stroke-width: 0.6"/>
      </g>
     </g>
    </g>
    <g id="ytick_31">
     <g id="line2d_41">
      <g>
       <use xlink:href="#m3894b77165" x="712.909375" y="46.700981" style="stroke: #000000; stroke-width: 0.6"/>
      </g>
     </g>
    </g>
    <g id="ytick_32">
     <g id="line2d_42">
      <g>
       <use xlink:href="#m3894b77165" x="712.909375" y="31.465348" style="stroke: #000000; stroke-width: 0.6"/>
      </g>
     </g>
    </g>
   </g>
   <g id="line2d_43">
    <path d="M 1015.86392 401.296144 
L 1044.045739 324.716305 
L 1072.227557 254.27816 
L 1100.409375 181.636151 
L 1128.591193 112.23228 
L 1156.773011 43.306747 
" clip-path="url(#pc4d2483c31)" style="fill: none; stroke-dasharray: 4,6.6; stroke-dashoffset: 0; stroke: #000080; stroke-width: 4"/>
   </g>
   <g id="line2d_44">
    <path d="M 903.136648 445.163033 
L 931.318466 445.847528 
L 959.500284 438.14239 
L 987.682102 424.947429 
L 1015.86392 400.580486 
L 1044.045739 353.589032 
L 1072.227557 298.173002 
L 1100.409375 236.894737 
L 1128.591193 164.828338 
L 1156.773011 93.971334 
" clip-path="url(#pc4d2483c31)" style="fill: none; stroke: #000080; stroke-width: 3; stroke-linecap: square"/>
   </g>
   <g id="line2d_45">
    <path d="M 931.318466 472.401852 
L 959.500284 406.235642 
L 987.682102 347.997321 
L 1015.86392 282.923644 
L 1044.045739 218.718744 
L 1072.227557 151.16901 
" clip-path="url(#pc4d2483c31)" style="fill: none; stroke-dasharray: 4,6.6; stroke-dashoffset: 0; stroke: #7dff7a; stroke-width: 4"/>
   </g>
   <g id="line2d_46">
    <path d="M 818.591193 450.165957 
L 846.773011 446.121724 
L 874.95483 442.953659 
L 903.136648 431.665943 
L 931.318466 412.058319 
L 959.500284 385.299502 
L 987.682102 338.840062 
L 1015.86392 298.452765 
L 1044.045739 228.227683 
L 1072.227557 163.070463 
" clip-path="url(#pc4d2483c31)" style="fill: none; stroke: #7dff7a; stroke-width: 3; stroke-linecap: square"/>
   </g>
   <g id="line2d_47">
    <path d="M 846.773011 537.488565 
L 874.95483 484.711591 
L 903.136648 433.679466 
L 931.318466 376.279973 
L 959.500284 325.220903 
L 987.682102 268.267967 
" clip-path="url(#pc4d2483c31)" style="fill: none; stroke-dasharray: 4,6.6; stroke-dashoffset: 0; stroke: #800000; stroke-width: 4"/>
   </g>
   <g id="line2d_48">
    <path d="M 734.045739 461.327435 
L 762.227557 461.438819 
L 790.409375 456.231216 
L 818.591193 451.112908 
L 846.773011 442.051749 
L 874.95483 425.077916 
L 903.136648 401.504877 
L 931.318466 371.175385 
L 959.500284 331.085454 
L 987.682102 285.602195 
" clip-path="url(#pc4d2483c31)" style="fill: none; stroke: #800000; stroke-width: 3; stroke-linecap: square"/>
   </g>
   <g id="line2d_49">
    <path d="M 712.909375 451.369519 
L 1177.909375 451.369519 
" clip-path="url(#pc4d2483c31)" style="fill: none; stroke-dasharray: 11.1,4.8; stroke-dashoffset: 0; stroke: #000000; stroke-width: 3"/>
   </g>
   <g id="patch_8">
    <path d="M 712.909375 562.197656 
L 712.909375 18.597656 
" style="fill: none; stroke: #000000; stroke-width: 0.8; stroke-linejoin: miter; stroke-linecap: square"/>
   </g>
   <g id="patch_9">
    <path d="M 1177.909375 562.197656 
L 1177.909375 18.597656 
" style="fill: none; stroke: #000000; stroke-width: 0.8; stroke-linejoin: miter; stroke-linecap: square"/>
   </g>
   <g id="patch_10">
    <path d="M 712.909375 562.197656 
L 1177.909375 562.197656 
" style="fill: none; stroke: #000000; stroke-width: 0.8; stroke-linejoin: miter; stroke-linecap: square"/>
   </g>
   <g id="patch_11">
    <path d="M 712.909375 18.597656 
L 1177.909375 18.597656 
" style="fill: none; stroke: #000000; stroke-width: 0.8; stroke-linejoin: miter; stroke-linecap: square"/>
   </g>
   <g id="legend_1">
    <g id="patch_12">
     <path d="M 1188.559375 556.761656 
L 1524.020313 556.761656 
Q 1530.020313 556.761656 1530.020313 550.761656 
L 1530.020313 286.424156 
Q 1530.020313 280.424156 1524.020313 280.424156 
L 1188.559375 280.424156 
Q 1182.559375 280.424156 1182.559375 286.424156 
L 1182.559375 550.761656 
Q 1182.559375 556.761656 1188.559375 556.761656 
z
" style="fill: #ffffff; opacity: 0.8; stroke: #cccccc; stroke-linejoin: miter"/>
    </g>
    <g id="text_17">
     <!-- $\mu N$, mutation rate -->
     <g transform="translate(1222.789844 315.224156)scale(0.3 -0.3)">
      <defs>
       <path id="DejaVuSans-3bc" d="M 544 -1331 
L 544 3500 
L 1119 3500 
L 1119 1325 
Q 1119 872 1334 640 
Q 1550 409 1972 409 
Q 2434 409 2667 671 
Q 2900 934 2900 1459 
L 2900 3500 
L 3475 3500 
L 3475 806 
Q 3475 619 3529 530 
Q 3584 441 3700 441 
Q 3728 441 3778 458 
Q 3828 475 3916 513 
L 3916 50 
Q 3788 -22 3673 -56 
Q 3559 -91 3450 -91 
Q 3234 -91 3106 31 
Q 2978 153 2931 403 
Q 2775 156 2548 32 
Q 2322 -91 2016 -91 
Q 1697 -91 1473 31 
Q 1250 153 1119 397 
L 1119 -1331 
L 544 -1331 
z
" transform="scale(0.015625)"/>
       <path id="DejaVuSans-4e" d="M 628 4666 
L 1478 4666 
L 3547 763 
L 3547 4666 
L 4159 4666 
L 4159 0 
L 3309 0 
L 1241 3903 
L 1241 0 
L 628 0 
L 628 4666 
z
" transform="scale(0.015625)"/>
       <path id="DejaVuSans-2c" d="M 750 794 
L 1409 794 
L 1409 256 
L 897 -744 
L 494 -744 
L 750 256 
L 750 794 
z
" transform="scale(0.015625)"/>
       <path id="DejaVuSans-20" transform="scale(0.015625)"/>
       <path id="DejaVuSans-6d" d="M 3328 2828 
Q 3544 3216 3844 3400 
Q 4144 3584 4550 3584 
Q 5097 3584 5394 3201 
Q 5691 2819 5691 2113 
L 5691 0 
L 5113 0 
L 5113 2094 
Q 5113 2597 4934 2840 
Q 4756 3084 4391 3084 
Q 3944 3084 3684 2787 
Q 3425 2491 3425 1978 
L 3425 0 
L 2847 0 
L 2847 2094 
Q 2847 2600 2669 2842 
Q 2491 3084 2119 3084 
Q 1678 3084 1418 2786 
Q 1159 2488 1159 1978 
L 1159 0 
L 581 0 
L 581 3500 
L 1159 3500 
L 1159 2956 
Q 1356 3278 1631 3431 
Q 1906 3584 2284 3584 
Q 2666 3584 2933 3390 
Q 3200 3197 3328 2828 
z
" transform="scale(0.015625)"/>
       <path id="DejaVuSans-75" d="M 544 1381 
L 544 3500 
L 1119 3500 
L 1119 1403 
Q 1119 906 1312 657 
Q 1506 409 1894 409 
Q 2359 409 2629 706 
Q 2900 1003 2900 1516 
L 2900 3500 
L 3475 3500 
L 3475 0 
L 2900 0 
L 2900 538 
Q 2691 219 2414 64 
Q 2138 -91 1772 -91 
Q 1169 -91 856 284 
Q 544 659 544 1381 
z
M 1991 3584 
L 1991 3584 
z
" transform="scale(0.015625)"/>
       <path id="DejaVuSans-74" d="M 1172 4494 
L 1172 3500 
L 2356 3500 
L 2356 3053 
L 1172 3053 
L 1172 1153 
Q 1172 725 1289 603 
Q 1406 481 1766 481 
L 2356 481 
L 2356 0 
L 1766 0 
Q 1100 0 847 248 
Q 594 497 594 1153 
L 594 3053 
L 172 3053 
L 172 3500 
L 594 3500 
L 594 4494 
L 1172 4494 
z
" transform="scale(0.015625)"/>
       <path id="DejaVuSans-61" d="M 2194 1759 
Q 1497 1759 1228 1600 
Q 959 1441 959 1056 
Q 959 750 1161 570 
Q 1363 391 1709 391 
Q 2188 391 2477 730 
Q 2766 1069 2766 1631 
L 2766 1759 
L 2194 1759 
z
M 3341 1997 
L 3341 0 
L 2766 0 
L 2766 531 
Q 2569 213 2275 61 
Q 1981 -91 1556 -91 
Q 1019 -91 701 211 
Q 384 513 384 1019 
Q 384 1609 779 1909 
Q 1175 2209 1959 2209 
L 2766 2209 
L 2766 2266 
Q 2766 2663 2505 2880 
Q 2244 3097 1772 3097 
Q 1472 3097 1187 3025 
Q 903 2953 641 2809 
L 641 3341 
Q 956 3463 1253 3523 
Q 1550 3584 1831 3584 
Q 2591 3584 2966 3190 
Q 3341 2797 3341 1997 
z
" transform="scale(0.015625)"/>
       <path id="DejaVuSans-69" d="M 603 3500 
L 1178 3500 
L 1178 0 
L 603 0 
L 603 3500 
z
M 603 4863 
L 1178 4863 
L 1178 4134 
L 603 4134 
L 603 4863 
z
" transform="scale(0.015625)"/>
       <path id="DejaVuSans-6f" d="M 1959 3097 
Q 1497 3097 1228 2736 
Q 959 2375 959 1747 
Q 959 1119 1226 758 
Q 1494 397 1959 397 
Q 2419 397 2687 759 
Q 2956 1122 2956 1747 
Q 2956 2369 2687 2733 
Q 2419 3097 1959 3097 
z
M 1959 3584 
Q 2709 3584 3137 3096 
Q 3566 2609 3566 1747 
Q 3566 888 3137 398 
Q 2709 -91 1959 -91 
Q 1206 -91 779 398 
Q 353 888 353 1747 
Q 353 2609 779 3096 
Q 1206 3584 1959 3584 
z
" transform="scale(0.015625)"/>
       <path id="DejaVuSans-6e" d="M 3513 2113 
L 3513 0 
L 2938 0 
L 2938 2094 
Q 2938 2591 2744 2837 
Q 2550 3084 2163 3084 
Q 1697 3084 1428 2787 
Q 1159 2491 1159 1978 
L 1159 0 
L 581 0 
L 581 3500 
L 1159 3500 
L 1159 2956 
Q 1366 3272 1645 3428 
Q 1925 3584 2291 3584 
Q 2894 3584 3203 3211 
Q 3513 2838 3513 2113 
z
" transform="scale(0.015625)"/>
       <path id="DejaVuSans-72" d="M 2631 2963 
Q 2534 3019 2420 3045 
Q 2306 3072 2169 3072 
Q 1681 3072 1420 2755 
Q 1159 2438 1159 1844 
L 1159 0 
L 581 0 
L 581 3500 
L 1159 3500 
L 1159 2956 
Q 1341 3275 1631 3429 
Q 1922 3584 2338 3584 
Q 2397 3584 2469 3576 
Q 2541 3569 2628 3553 
L 2631 2963 
z
" transform="scale(0.015625)"/>
       <path id="DejaVuSans-65" d="M 3597 1894 
L 3597 1613 
L 953 1613 
Q 991 1019 1311 708 
Q 1631 397 2203 397 
Q 2534 397 2845 478 
Q 3156 559 3463 722 
L 3463 178 
Q 3153 47 2828 -22 
Q 2503 -91 2169 -91 
Q 1331 -91 842 396 
Q 353 884 353 1716 
Q 353 2575 817 3079 
Q 1281 3584 2069 3584 
Q 2775 3584 3186 3129 
Q 3597 2675 3597 1894 
z
M 3022 2063 
Q 3016 2534 2758 2815 
Q 2500 3097 2075 3097 
Q 1594 3097 1305 2825 
Q 1016 2553 972 2059 
L 3022 2063 
z
" transform="scale(0.015625)"/>
      </defs>
      <use xlink:href="#DejaVuSans-3bc" transform="translate(0 0.015625)"/>
      <use xlink:href="#DejaVuSans-4e" transform="translate(63.623047 0.015625)"/>
      <use xlink:href="#DejaVuSans-2c" transform="translate(138.427734 0.015625)"/>
      <use xlink:href="#DejaVuSans-20" transform="translate(170.214844 0.015625)"/>
      <use xlink:href="#DejaVuSans-6d" transform="translate(202.001953 0.015625)"/>
      <use xlink:href="#DejaVuSans-75" transform="translate(299.414062 0.015625)"/>
      <use xlink:href="#DejaVuSans-74" transform="translate(362.792969 0.015625)"/>
      <use xlink:href="#DejaVuSans-61" transform="translate(402.001953 0.015625)"/>
      <use xlink:href="#DejaVuSans-74" transform="translate(463.28125 0.015625)"/>
      <use xlink:href="#DejaVuSans-69" transform="translate(502.490234 0.015625)"/>
      <use xlink:href="#DejaVuSans-6f" transform="translate(530.273438 0.015625)"/>
      <use xlink:href="#DejaVuSans-6e" transform="translate(591.455078 0.015625)"/>
      <use xlink:href="#DejaVuSans-20" transform="translate(654.833984 0.015625)"/>
      <use xlink:href="#DejaVuSans-72" transform="translate(686.621094 0.015625)"/>
      <use xlink:href="#DejaVuSans-61" transform="translate(727.734375 0.015625)"/>
      <use xlink:href="#DejaVuSans-74" transform="translate(789.013672 0.015625)"/>
      <use xlink:href="#DejaVuSans-65" transform="translate(828.222656 0.015625)"/>
     </g>
    </g>
    <g id="line2d_50">
     <path d="M 1194.559375 348.819469 
L 1224.559375 348.819469 
L 1254.559375 348.819469 
" style="fill: none; stroke: #000080; stroke-width: 3; stroke-linecap: square"/>
    </g>
    <g id="text_18">
     <!-- $1e+01$ -->
     <g transform="translate(1278.559375 359.319469)scale(0.3 -0.3)">
      <defs>
       <path id="DejaVuSans-2b" d="M 2944 4013 
L 2944 2272 
L 4684 2272 
L 4684 1741 
L 2944 1741 
L 2944 0 
L 2419 0 
L 2419 1741 
L 678 1741 
L 678 2272 
L 2419 2272 
L 2419 4013 
L 2944 4013 
z
" transform="scale(0.015625)"/>
      </defs>
      <use xlink:href="#DejaVuSans-31" transform="translate(0 0.78125)"/>
      <use xlink:href="#DejaVuSans-65" transform="translate(63.623047 0.78125)"/>
      <use xlink:href="#DejaVuSans-2b" transform="translate(144.628906 0.78125)"/>
      <use xlink:href="#DejaVuSans-30" transform="translate(247.900391 0.78125)"/>
      <use xlink:href="#DejaVuSans-31" transform="translate(311.523438 0.78125)"/>
     </g>
    </g>
    <g id="line2d_51">
     <path d="M 1194.559375 392.853844 
L 1224.559375 392.853844 
L 1254.559375 392.853844 
" style="fill: none; stroke: #7dff7a; stroke-width: 3; stroke-linecap: square"/>
    </g>
    <g id="text_19">
     <!-- $1e+02$ -->
     <g transform="translate(1278.559375 403.353844)scale(0.3 -0.3)">
      <use xlink:href="#DejaVuSans-31" transform="translate(0 0.78125)"/>
      <use xlink:href="#DejaVuSans-65" transform="translate(63.623047 0.78125)"/>
      <use xlink:href="#DejaVuSans-2b" transform="translate(144.628906 0.78125)"/>
      <use xlink:href="#DejaVuSans-30" transform="translate(247.900391 0.78125)"/>
      <use xlink:href="#DejaVuSans-32" transform="translate(311.523438 0.78125)"/>
     </g>
    </g>
    <g id="line2d_52">
     <path d="M 1194.559375 436.888219 
L 1224.559375 436.888219 
L 1254.559375 436.888219 
" style="fill: none; stroke: #800000; stroke-width: 3; stroke-linecap: square"/>
    </g>
    <g id="text_20">
     <!-- $1e+03$ -->
     <g transform="translate(1278.559375 447.388219)scale(0.3 -0.3)">
      <use xlink:href="#DejaVuSans-31" transform="translate(0 0.78125)"/>
      <use xlink:href="#DejaVuSans-65" transform="translate(63.623047 0.78125)"/>
      <use xlink:href="#DejaVuSans-2b" transform="translate(144.628906 0.78125)"/>
      <use xlink:href="#DejaVuSans-30" transform="translate(247.900391 0.78125)"/>
      <use xlink:href="#DejaVuSans-33" transform="translate(311.523438 0.78125)"/>
     </g>
    </g>
    <g id="line2d_53">
     <path d="M 1194.559375 480.922594 
L 1224.559375 480.922594 
L 1254.559375 480.922594 
" style="fill: none; stroke-dasharray: 3,4.95; stroke-dashoffset: 0; stroke: #000000; stroke-width: 3"/>
    </g>
    <g id="text_21">
     <!-- Theory (shifted) -->
     <g transform="translate(1278.559375 491.422594)scale(0.3 -0.3)">
      <defs>
       <path id="DejaVuSans-54" d="M -19 4666 
L 3928 4666 
L 3928 4134 
L 2272 4134 
L 2272 0 
L 1638 0 
L 1638 4134 
L -19 4134 
L -19 4666 
z
" transform="scale(0.015625)"/>
       <path id="DejaVuSans-68" d="M 3513 2113 
L 3513 0 
L 2938 0 
L 2938 2094 
Q 2938 2591 2744 2837 
Q 2550 3084 2163 3084 
Q 1697 3084 1428 2787 
Q 1159 2491 1159 1978 
L 1159 0 
L 581 0 
L 581 4863 
L 1159 4863 
L 1159 2956 
Q 1366 3272 1645 3428 
Q 1925 3584 2291 3584 
Q 2894 3584 3203 3211 
Q 3513 2838 3513 2113 
z
" transform="scale(0.015625)"/>
       <path id="DejaVuSans-79" d="M 2059 -325 
Q 1816 -950 1584 -1140 
Q 1353 -1331 966 -1331 
L 506 -1331 
L 506 -850 
L 844 -850 
Q 1081 -850 1212 -737 
Q 1344 -625 1503 -206 
L 1606 56 
L 191 3500 
L 800 3500 
L 1894 763 
L 2988 3500 
L 3597 3500 
L 2059 -325 
z
" transform="scale(0.015625)"/>
       <path id="DejaVuSans-28" d="M 1984 4856 
Q 1566 4138 1362 3434 
Q 1159 2731 1159 2009 
Q 1159 1288 1364 580 
Q 1569 -128 1984 -844 
L 1484 -844 
Q 1016 -109 783 600 
Q 550 1309 550 2009 
Q 550 2706 781 3412 
Q 1013 4119 1484 4856 
L 1984 4856 
z
" transform="scale(0.015625)"/>
       <path id="DejaVuSans-73" d="M 2834 3397 
L 2834 2853 
Q 2591 2978 2328 3040 
Q 2066 3103 1784 3103 
Q 1356 3103 1142 2972 
Q 928 2841 928 2578 
Q 928 2378 1081 2264 
Q 1234 2150 1697 2047 
L 1894 2003 
Q 2506 1872 2764 1633 
Q 3022 1394 3022 966 
Q 3022 478 2636 193 
Q 2250 -91 1575 -91 
Q 1294 -91 989 -36 
Q 684 19 347 128 
L 347 722 
Q 666 556 975 473 
Q 1284 391 1588 391 
Q 1994 391 2212 530 
Q 2431 669 2431 922 
Q 2431 1156 2273 1281 
Q 2116 1406 1581 1522 
L 1381 1569 
Q 847 1681 609 1914 
Q 372 2147 372 2553 
Q 372 3047 722 3315 
Q 1072 3584 1716 3584 
Q 2034 3584 2315 3537 
Q 2597 3491 2834 3397 
z
" transform="scale(0.015625)"/>
       <path id="DejaVuSans-66" d="M 2375 4863 
L 2375 4384 
L 1825 4384 
Q 1516 4384 1395 4259 
Q 1275 4134 1275 3809 
L 1275 3500 
L 2222 3500 
L 2222 3053 
L 1275 3053 
L 1275 0 
L 697 0 
L 697 3053 
L 147 3053 
L 147 3500 
L 697 3500 
L 697 3744 
Q 697 4328 969 4595 
Q 1241 4863 1831 4863 
L 2375 4863 
z
" transform="scale(0.015625)"/>
       <path id="DejaVuSans-64" d="M 2906 2969 
L 2906 4863 
L 3481 4863 
L 3481 0 
L 2906 0 
L 2906 525 
Q 2725 213 2448 61 
Q 2172 -91 1784 -91 
Q 1150 -91 751 415 
Q 353 922 353 1747 
Q 353 2572 751 3078 
Q 1150 3584 1784 3584 
Q 2172 3584 2448 3432 
Q 2725 3281 2906 2969 
z
M 947 1747 
Q 947 1113 1208 752 
Q 1469 391 1925 391 
Q 2381 391 2643 752 
Q 2906 1113 2906 1747 
Q 2906 2381 2643 2742 
Q 2381 3103 1925 3103 
Q 1469 3103 1208 2742 
Q 947 2381 947 1747 
z
" transform="scale(0.015625)"/>
       <path id="DejaVuSans-29" d="M 513 4856 
L 1013 4856 
Q 1481 4119 1714 3412 
Q 1947 2706 1947 2009 
Q 1947 1309 1714 600 
Q 1481 -109 1013 -844 
L 513 -844 
Q 928 -128 1133 580 
Q 1338 1288 1338 2009 
Q 1338 2731 1133 3434 
Q 928 4138 513 4856 
z
" transform="scale(0.015625)"/>
      </defs>
      <use xlink:href="#DejaVuSans-54"/>
      <use xlink:href="#DejaVuSans-68" x="61.083984"/>
      <use xlink:href="#DejaVuSans-65" x="124.462891"/>
      <use xlink:href="#DejaVuSans-6f" x="185.986328"/>
      <use xlink:href="#DejaVuSans-72" x="247.167969"/>
      <use xlink:href="#DejaVuSans-79" x="288.28125"/>
      <use xlink:href="#DejaVuSans-20" x="347.460938"/>
      <use xlink:href="#DejaVuSans-28" x="379.248047"/>
      <use xlink:href="#DejaVuSans-73" x="418.261719"/>
      <use xlink:href="#DejaVuSans-68" x="470.361328"/>
      <use xlink:href="#DejaVuSans-69" x="533.740234"/>
      <use xlink:href="#DejaVuSans-66" x="561.523438"/>
      <use xlink:href="#DejaVuSans-74" x="594.978516"/>
      <use xlink:href="#DejaVuSans-65" x="634.1875"/>
      <use xlink:href="#DejaVuSans-64" x="695.710938"/>
      <use xlink:href="#DejaVuSans-29" x="759.1875"/>
     </g>
    </g>
    <g id="line2d_54">
     <path d="M 1194.559375 524.961656 
L 1224.559375 524.961656 
L 1254.559375 524.961656 
" style="fill: none; stroke-dasharray: 11.1,4.8; stroke-dashoffset: 0; stroke: #000000; stroke-width: 3"/>
    </g>
    <g id="text_22">
     <!-- $t_\mathrm{p}(\kappa)$, peak time -->
     <g transform="translate(1278.559375 535.461656)scale(0.3 -0.3)">
      <defs>
       <path id="DejaVuSans-70" d="M 1159 525 
L 1159 -1331 
L 581 -1331 
L 581 3500 
L 1159 3500 
L 1159 2969 
Q 1341 3281 1617 3432 
Q 1894 3584 2278 3584 
Q 2916 3584 3314 3078 
Q 3713 2572 3713 1747 
Q 3713 922 3314 415 
Q 2916 -91 2278 -91 
Q 1894 -91 1617 61 
Q 1341 213 1159 525 
z
M 3116 1747 
Q 3116 2381 2855 2742 
Q 2594 3103 2138 3103 
Q 1681 3103 1420 2742 
Q 1159 2381 1159 1747 
Q 1159 1113 1420 752 
Q 1681 391 2138 391 
Q 2594 391 2855 752 
Q 3116 1113 3116 1747 
z
" transform="scale(0.015625)"/>
       <path id="DejaVuSans-3ba" d="M 597 3500 
L 1191 3500 
L 1191 2047 
L 2700 3500 
L 3400 3500 
L 2022 2181 
L 3616 0 
L 2913 0 
L 1619 1806 
L 1191 1403 
L 1191 0 
L 597 0 
L 597 3500 
z
" transform="scale(0.015625)"/>
       <path id="DejaVuSans-6b" d="M 581 4863 
L 1159 4863 
L 1159 1991 
L 2875 3500 
L 3609 3500 
L 1753 1863 
L 3688 0 
L 2938 0 
L 1159 1709 
L 1159 0 
L 581 0 
L 581 4863 
z
" transform="scale(0.015625)"/>
      </defs>
      <use xlink:href="#DejaVuSans-74" transform="translate(0 0.015625)"/>
      <use xlink:href="#DejaVuSans-70" transform="translate(40.166016 -16.390625)scale(0.7)"/>
      <use xlink:href="#DejaVuSans-28" transform="translate(87.333984 0.015625)"/>
      <use xlink:href="#DejaVuSans-3ba" transform="translate(126.347656 0.015625)"/>
      <use xlink:href="#DejaVuSans-29" transform="translate(185.283203 0.015625)"/>
      <use xlink:href="#DejaVuSans-2c" transform="translate(224.296875 0.015625)"/>
      <use xlink:href="#DejaVuSans-20" transform="translate(256.083984 0.015625)"/>
      <use xlink:href="#DejaVuSans-70" transform="translate(287.871094 0.015625)"/>
      <use xlink:href="#DejaVuSans-65" transform="translate(351.347656 0.015625)"/>
      <use xlink:href="#DejaVuSans-61" transform="translate(412.871094 0.015625)"/>
      <use xlink:href="#DejaVuSans-6b" transform="translate(474.150391 0.015625)"/>
      <use xlink:href="#DejaVuSans-20" transform="translate(532.060547 0.015625)"/>
      <use xlink:href="#DejaVuSans-74" transform="translate(563.847656 0.015625)"/>
      <use xlink:href="#DejaVuSans-69" transform="translate(603.056641 0.015625)"/>
      <use xlink:href="#DejaVuSans-6d" transform="translate(630.839844 0.015625)"/>
      <use xlink:href="#DejaVuSans-65" transform="translate(728.251953 0.015625)"/>
     </g>
    </g>
   </g>
  </g>
 </g>
 <defs>
  <clipPath id="p8576d26727">
   <rect x="61.909375" y="18.597656" width="465" height="543.6"/>
  </clipPath>
  <clipPath id="pc4d2483c31">
   <rect x="712.909375" y="18.597656" width="465" height="543.6"/>
  </clipPath>
 </defs>
</svg>
